%TF.GenerationSoftware,KiCad,Pcbnew,7.0.7*%
%TF.CreationDate,2023-09-16T22:14:34+02:00*%
%TF.ProjectId,oled242,6f6c6564-3234-4322-9e6b-696361645f70,rev?*%
%TF.SameCoordinates,Original*%
%TF.FileFunction,Legend,Top*%
%TF.FilePolarity,Positive*%
%FSLAX46Y46*%
G04 Gerber Fmt 4.6, Leading zero omitted, Abs format (unit mm)*
G04 Created by KiCad (PCBNEW 7.0.7) date 2023-09-16 22:14:34*
%MOMM*%
%LPD*%
G01*
G04 APERTURE LIST*
G04 Aperture macros list*
%AMRoundRect*
0 Rectangle with rounded corners*
0 $1 Rounding radius*
0 $2 $3 $4 $5 $6 $7 $8 $9 X,Y pos of 4 corners*
0 Add a 4 corners polygon primitive as box body*
4,1,4,$2,$3,$4,$5,$6,$7,$8,$9,$2,$3,0*
0 Add four circle primitives for the rounded corners*
1,1,$1+$1,$2,$3*
1,1,$1+$1,$4,$5*
1,1,$1+$1,$6,$7*
1,1,$1+$1,$8,$9*
0 Add four rect primitives between the rounded corners*
20,1,$1+$1,$2,$3,$4,$5,0*
20,1,$1+$1,$4,$5,$6,$7,0*
20,1,$1+$1,$6,$7,$8,$9,0*
20,1,$1+$1,$8,$9,$2,$3,0*%
G04 Aperture macros list end*
%ADD10C,0.125000*%
%ADD11C,0.150000*%
%ADD12C,0.120000*%
%ADD13RoundRect,0.200000X0.275000X-0.200000X0.275000X0.200000X-0.275000X0.200000X-0.275000X-0.200000X0*%
%ADD14RoundRect,0.140000X-0.170000X0.140000X-0.170000X-0.140000X0.170000X-0.140000X0.170000X0.140000X0*%
%ADD15RoundRect,1.250000X2.250000X1.250000X-2.250000X1.250000X-2.250000X-1.250000X2.250000X-1.250000X0*%
%ADD16O,6.250000X1.500000*%
%ADD17RoundRect,0.250000X-0.650000X0.325000X-0.650000X-0.325000X0.650000X-0.325000X0.650000X0.325000X0*%
%ADD18RoundRect,0.140000X0.140000X0.170000X-0.140000X0.170000X-0.140000X-0.170000X0.140000X-0.170000X0*%
%ADD19RoundRect,0.250000X0.475000X-0.250000X0.475000X0.250000X-0.475000X0.250000X-0.475000X-0.250000X0*%
%ADD20RoundRect,0.225000X0.250000X-0.225000X0.250000X0.225000X-0.250000X0.225000X-0.250000X-0.225000X0*%
%ADD21R,1.700000X1.700000*%
%ADD22O,1.700000X1.700000*%
%ADD23R,1.250000X0.760000*%
%ADD24C,2.100000*%
%ADD25RoundRect,0.200000X-0.275000X0.200000X-0.275000X-0.200000X0.275000X-0.200000X0.275000X0.200000X0*%
%ADD26RoundRect,0.150000X0.512500X0.150000X-0.512500X0.150000X-0.512500X-0.150000X0.512500X-0.150000X0*%
%ADD27RoundRect,1.250000X-2.250000X-1.250000X2.250000X-1.250000X2.250000X1.250000X-2.250000X1.250000X0*%
%ADD28RoundRect,0.250000X-0.325000X-1.100000X0.325000X-1.100000X0.325000X1.100000X-0.325000X1.100000X0*%
%ADD29R,0.600000X0.450000*%
%ADD30R,0.300000X1.300000*%
%ADD31R,1.800000X2.200000*%
G04 APERTURE END LIST*
D10*
X36761906Y-30359809D02*
X36857144Y-30359809D01*
X36857144Y-30359809D02*
X36904763Y-30383619D01*
X36904763Y-30383619D02*
X36952382Y-30431238D01*
X36952382Y-30431238D02*
X36976192Y-30526476D01*
X36976192Y-30526476D02*
X36976192Y-30693142D01*
X36976192Y-30693142D02*
X36952382Y-30788380D01*
X36952382Y-30788380D02*
X36904763Y-30836000D01*
X36904763Y-30836000D02*
X36857144Y-30859809D01*
X36857144Y-30859809D02*
X36761906Y-30859809D01*
X36761906Y-30859809D02*
X36714287Y-30836000D01*
X36714287Y-30836000D02*
X36666668Y-30788380D01*
X36666668Y-30788380D02*
X36642859Y-30693142D01*
X36642859Y-30693142D02*
X36642859Y-30526476D01*
X36642859Y-30526476D02*
X36666668Y-30431238D01*
X36666668Y-30431238D02*
X36714287Y-30383619D01*
X36714287Y-30383619D02*
X36761906Y-30359809D01*
X37190478Y-30859809D02*
X37190478Y-30359809D01*
X37190478Y-30359809D02*
X37476192Y-30859809D01*
X37476192Y-30859809D02*
X37476192Y-30359809D01*
X38095240Y-30859809D02*
X38095240Y-30359809D01*
X38500002Y-30597904D02*
X38333335Y-30597904D01*
X38333335Y-30859809D02*
X38333335Y-30359809D01*
X38333335Y-30359809D02*
X38571430Y-30359809D01*
X39071430Y-30359809D02*
X39238096Y-30859809D01*
X39238096Y-30859809D02*
X39404763Y-30359809D01*
X39857143Y-30812190D02*
X39833334Y-30836000D01*
X39833334Y-30836000D02*
X39761905Y-30859809D01*
X39761905Y-30859809D02*
X39714286Y-30859809D01*
X39714286Y-30859809D02*
X39642858Y-30836000D01*
X39642858Y-30836000D02*
X39595239Y-30788380D01*
X39595239Y-30788380D02*
X39571429Y-30740761D01*
X39571429Y-30740761D02*
X39547620Y-30645523D01*
X39547620Y-30645523D02*
X39547620Y-30574095D01*
X39547620Y-30574095D02*
X39571429Y-30478857D01*
X39571429Y-30478857D02*
X39595239Y-30431238D01*
X39595239Y-30431238D02*
X39642858Y-30383619D01*
X39642858Y-30383619D02*
X39714286Y-30359809D01*
X39714286Y-30359809D02*
X39761905Y-30359809D01*
X39761905Y-30359809D02*
X39833334Y-30383619D01*
X39833334Y-30383619D02*
X39857143Y-30407428D01*
X40357143Y-30812190D02*
X40333334Y-30836000D01*
X40333334Y-30836000D02*
X40261905Y-30859809D01*
X40261905Y-30859809D02*
X40214286Y-30859809D01*
X40214286Y-30859809D02*
X40142858Y-30836000D01*
X40142858Y-30836000D02*
X40095239Y-30788380D01*
X40095239Y-30788380D02*
X40071429Y-30740761D01*
X40071429Y-30740761D02*
X40047620Y-30645523D01*
X40047620Y-30645523D02*
X40047620Y-30574095D01*
X40047620Y-30574095D02*
X40071429Y-30478857D01*
X40071429Y-30478857D02*
X40095239Y-30431238D01*
X40095239Y-30431238D02*
X40142858Y-30383619D01*
X40142858Y-30383619D02*
X40214286Y-30359809D01*
X40214286Y-30359809D02*
X40261905Y-30359809D01*
X40261905Y-30359809D02*
X40333334Y-30383619D01*
X40333334Y-30383619D02*
X40357143Y-30407428D01*
X40952381Y-30526476D02*
X41333334Y-30669333D01*
X41333334Y-30669333D02*
X40952381Y-30812190D01*
X41904762Y-30359809D02*
X42214286Y-30359809D01*
X42214286Y-30359809D02*
X42047619Y-30550285D01*
X42047619Y-30550285D02*
X42119048Y-30550285D01*
X42119048Y-30550285D02*
X42166667Y-30574095D01*
X42166667Y-30574095D02*
X42190476Y-30597904D01*
X42190476Y-30597904D02*
X42214286Y-30645523D01*
X42214286Y-30645523D02*
X42214286Y-30764571D01*
X42214286Y-30764571D02*
X42190476Y-30812190D01*
X42190476Y-30812190D02*
X42166667Y-30836000D01*
X42166667Y-30836000D02*
X42119048Y-30859809D01*
X42119048Y-30859809D02*
X41976191Y-30859809D01*
X41976191Y-30859809D02*
X41928572Y-30836000D01*
X41928572Y-30836000D02*
X41904762Y-30812190D01*
X42428571Y-30812190D02*
X42452381Y-30836000D01*
X42452381Y-30836000D02*
X42428571Y-30859809D01*
X42428571Y-30859809D02*
X42404762Y-30836000D01*
X42404762Y-30836000D02*
X42428571Y-30812190D01*
X42428571Y-30812190D02*
X42428571Y-30859809D01*
X42619047Y-30359809D02*
X42928571Y-30359809D01*
X42928571Y-30359809D02*
X42761904Y-30550285D01*
X42761904Y-30550285D02*
X42833333Y-30550285D01*
X42833333Y-30550285D02*
X42880952Y-30574095D01*
X42880952Y-30574095D02*
X42904761Y-30597904D01*
X42904761Y-30597904D02*
X42928571Y-30645523D01*
X42928571Y-30645523D02*
X42928571Y-30764571D01*
X42928571Y-30764571D02*
X42904761Y-30812190D01*
X42904761Y-30812190D02*
X42880952Y-30836000D01*
X42880952Y-30836000D02*
X42833333Y-30859809D01*
X42833333Y-30859809D02*
X42690476Y-30859809D01*
X42690476Y-30859809D02*
X42642857Y-30836000D01*
X42642857Y-30836000D02*
X42619047Y-30812190D01*
X43071428Y-30359809D02*
X43238094Y-30859809D01*
X43238094Y-30859809D02*
X43404761Y-30359809D01*
X36666667Y-28359809D02*
X36666667Y-27859809D01*
X36880953Y-27907428D02*
X36904762Y-27883619D01*
X36904762Y-27883619D02*
X36952381Y-27859809D01*
X36952381Y-27859809D02*
X37071429Y-27859809D01*
X37071429Y-27859809D02*
X37119048Y-27883619D01*
X37119048Y-27883619D02*
X37142857Y-27907428D01*
X37142857Y-27907428D02*
X37166667Y-27955047D01*
X37166667Y-27955047D02*
X37166667Y-28002666D01*
X37166667Y-28002666D02*
X37142857Y-28074095D01*
X37142857Y-28074095D02*
X36857143Y-28359809D01*
X36857143Y-28359809D02*
X37166667Y-28359809D01*
X37666666Y-28312190D02*
X37642857Y-28336000D01*
X37642857Y-28336000D02*
X37571428Y-28359809D01*
X37571428Y-28359809D02*
X37523809Y-28359809D01*
X37523809Y-28359809D02*
X37452381Y-28336000D01*
X37452381Y-28336000D02*
X37404762Y-28288380D01*
X37404762Y-28288380D02*
X37380952Y-28240761D01*
X37380952Y-28240761D02*
X37357143Y-28145523D01*
X37357143Y-28145523D02*
X37357143Y-28074095D01*
X37357143Y-28074095D02*
X37380952Y-27978857D01*
X37380952Y-27978857D02*
X37404762Y-27931238D01*
X37404762Y-27931238D02*
X37452381Y-27883619D01*
X37452381Y-27883619D02*
X37523809Y-27859809D01*
X37523809Y-27859809D02*
X37571428Y-27859809D01*
X37571428Y-27859809D02*
X37642857Y-27883619D01*
X37642857Y-27883619D02*
X37666666Y-27907428D01*
X38357142Y-27859809D02*
X38452380Y-27859809D01*
X38452380Y-27859809D02*
X38499999Y-27883619D01*
X38499999Y-27883619D02*
X38547618Y-27931238D01*
X38547618Y-27931238D02*
X38571428Y-28026476D01*
X38571428Y-28026476D02*
X38571428Y-28193142D01*
X38571428Y-28193142D02*
X38547618Y-28288380D01*
X38547618Y-28288380D02*
X38499999Y-28336000D01*
X38499999Y-28336000D02*
X38452380Y-28359809D01*
X38452380Y-28359809D02*
X38357142Y-28359809D01*
X38357142Y-28359809D02*
X38309523Y-28336000D01*
X38309523Y-28336000D02*
X38261904Y-28288380D01*
X38261904Y-28288380D02*
X38238095Y-28193142D01*
X38238095Y-28193142D02*
X38238095Y-28026476D01*
X38238095Y-28026476D02*
X38261904Y-27931238D01*
X38261904Y-27931238D02*
X38309523Y-27883619D01*
X38309523Y-27883619D02*
X38357142Y-27859809D01*
X38952381Y-28097904D02*
X38785714Y-28097904D01*
X38785714Y-28359809D02*
X38785714Y-27859809D01*
X38785714Y-27859809D02*
X39023809Y-27859809D01*
X39380952Y-28097904D02*
X39214285Y-28097904D01*
X39214285Y-28359809D02*
X39214285Y-27859809D01*
X39214285Y-27859809D02*
X39452380Y-27859809D01*
X40380951Y-27836000D02*
X39952380Y-28478857D01*
X40904761Y-28336000D02*
X40976189Y-28359809D01*
X40976189Y-28359809D02*
X41095237Y-28359809D01*
X41095237Y-28359809D02*
X41142856Y-28336000D01*
X41142856Y-28336000D02*
X41166665Y-28312190D01*
X41166665Y-28312190D02*
X41190475Y-28264571D01*
X41190475Y-28264571D02*
X41190475Y-28216952D01*
X41190475Y-28216952D02*
X41166665Y-28169333D01*
X41166665Y-28169333D02*
X41142856Y-28145523D01*
X41142856Y-28145523D02*
X41095237Y-28121714D01*
X41095237Y-28121714D02*
X40999999Y-28097904D01*
X40999999Y-28097904D02*
X40952380Y-28074095D01*
X40952380Y-28074095D02*
X40928570Y-28050285D01*
X40928570Y-28050285D02*
X40904761Y-28002666D01*
X40904761Y-28002666D02*
X40904761Y-27955047D01*
X40904761Y-27955047D02*
X40928570Y-27907428D01*
X40928570Y-27907428D02*
X40952380Y-27883619D01*
X40952380Y-27883619D02*
X40999999Y-27859809D01*
X40999999Y-27859809D02*
X41119046Y-27859809D01*
X41119046Y-27859809D02*
X41190475Y-27883619D01*
X41404760Y-28359809D02*
X41404760Y-27859809D01*
X41404760Y-27859809D02*
X41595236Y-27859809D01*
X41595236Y-27859809D02*
X41642855Y-27883619D01*
X41642855Y-27883619D02*
X41666665Y-27907428D01*
X41666665Y-27907428D02*
X41690474Y-27955047D01*
X41690474Y-27955047D02*
X41690474Y-28026476D01*
X41690474Y-28026476D02*
X41666665Y-28074095D01*
X41666665Y-28074095D02*
X41642855Y-28097904D01*
X41642855Y-28097904D02*
X41595236Y-28121714D01*
X41595236Y-28121714D02*
X41404760Y-28121714D01*
X41904760Y-28359809D02*
X41904760Y-27859809D01*
X42619045Y-27859809D02*
X42714283Y-27859809D01*
X42714283Y-27859809D02*
X42761902Y-27883619D01*
X42761902Y-27883619D02*
X42809521Y-27931238D01*
X42809521Y-27931238D02*
X42833331Y-28026476D01*
X42833331Y-28026476D02*
X42833331Y-28193142D01*
X42833331Y-28193142D02*
X42809521Y-28288380D01*
X42809521Y-28288380D02*
X42761902Y-28336000D01*
X42761902Y-28336000D02*
X42714283Y-28359809D01*
X42714283Y-28359809D02*
X42619045Y-28359809D01*
X42619045Y-28359809D02*
X42571426Y-28336000D01*
X42571426Y-28336000D02*
X42523807Y-28288380D01*
X42523807Y-28288380D02*
X42499998Y-28193142D01*
X42499998Y-28193142D02*
X42499998Y-28026476D01*
X42499998Y-28026476D02*
X42523807Y-27931238D01*
X42523807Y-27931238D02*
X42571426Y-27883619D01*
X42571426Y-27883619D02*
X42619045Y-27859809D01*
X43047617Y-28359809D02*
X43047617Y-27859809D01*
X43047617Y-27859809D02*
X43333331Y-28359809D01*
X43333331Y-28359809D02*
X43333331Y-27859809D01*
X38452381Y-32859809D02*
X38761905Y-32859809D01*
X38761905Y-32859809D02*
X38595238Y-33050285D01*
X38595238Y-33050285D02*
X38666667Y-33050285D01*
X38666667Y-33050285D02*
X38714286Y-33074095D01*
X38714286Y-33074095D02*
X38738095Y-33097904D01*
X38738095Y-33097904D02*
X38761905Y-33145523D01*
X38761905Y-33145523D02*
X38761905Y-33264571D01*
X38761905Y-33264571D02*
X38738095Y-33312190D01*
X38738095Y-33312190D02*
X38714286Y-33336000D01*
X38714286Y-33336000D02*
X38666667Y-33359809D01*
X38666667Y-33359809D02*
X38523810Y-33359809D01*
X38523810Y-33359809D02*
X38476191Y-33336000D01*
X38476191Y-33336000D02*
X38452381Y-33312190D01*
X38976190Y-33169333D02*
X39357143Y-33169333D01*
X39547619Y-32859809D02*
X39666667Y-33359809D01*
X39666667Y-33359809D02*
X39761905Y-33002666D01*
X39761905Y-33002666D02*
X39857143Y-33359809D01*
X39857143Y-33359809D02*
X39976191Y-32859809D01*
X40166667Y-33359809D02*
X40166667Y-33026476D01*
X40166667Y-32859809D02*
X40142858Y-32883619D01*
X40142858Y-32883619D02*
X40166667Y-32907428D01*
X40166667Y-32907428D02*
X40190477Y-32883619D01*
X40190477Y-32883619D02*
X40166667Y-32859809D01*
X40166667Y-32859809D02*
X40166667Y-32907428D01*
X40404762Y-33359809D02*
X40404762Y-33026476D01*
X40404762Y-33121714D02*
X40428572Y-33074095D01*
X40428572Y-33074095D02*
X40452381Y-33050285D01*
X40452381Y-33050285D02*
X40500000Y-33026476D01*
X40500000Y-33026476D02*
X40547619Y-33026476D01*
X40904762Y-33336000D02*
X40857143Y-33359809D01*
X40857143Y-33359809D02*
X40761905Y-33359809D01*
X40761905Y-33359809D02*
X40714286Y-33336000D01*
X40714286Y-33336000D02*
X40690477Y-33288380D01*
X40690477Y-33288380D02*
X40690477Y-33097904D01*
X40690477Y-33097904D02*
X40714286Y-33050285D01*
X40714286Y-33050285D02*
X40761905Y-33026476D01*
X40761905Y-33026476D02*
X40857143Y-33026476D01*
X40857143Y-33026476D02*
X40904762Y-33050285D01*
X40904762Y-33050285D02*
X40928572Y-33097904D01*
X40928572Y-33097904D02*
X40928572Y-33145523D01*
X40928572Y-33145523D02*
X40690477Y-33193142D01*
X41500000Y-33336000D02*
X41571428Y-33359809D01*
X41571428Y-33359809D02*
X41690476Y-33359809D01*
X41690476Y-33359809D02*
X41738095Y-33336000D01*
X41738095Y-33336000D02*
X41761904Y-33312190D01*
X41761904Y-33312190D02*
X41785714Y-33264571D01*
X41785714Y-33264571D02*
X41785714Y-33216952D01*
X41785714Y-33216952D02*
X41761904Y-33169333D01*
X41761904Y-33169333D02*
X41738095Y-33145523D01*
X41738095Y-33145523D02*
X41690476Y-33121714D01*
X41690476Y-33121714D02*
X41595238Y-33097904D01*
X41595238Y-33097904D02*
X41547619Y-33074095D01*
X41547619Y-33074095D02*
X41523809Y-33050285D01*
X41523809Y-33050285D02*
X41500000Y-33002666D01*
X41500000Y-33002666D02*
X41500000Y-32955047D01*
X41500000Y-32955047D02*
X41523809Y-32907428D01*
X41523809Y-32907428D02*
X41547619Y-32883619D01*
X41547619Y-32883619D02*
X41595238Y-32859809D01*
X41595238Y-32859809D02*
X41714285Y-32859809D01*
X41714285Y-32859809D02*
X41785714Y-32883619D01*
X41999999Y-33359809D02*
X41999999Y-32859809D01*
X41999999Y-32859809D02*
X42190475Y-32859809D01*
X42190475Y-32859809D02*
X42238094Y-32883619D01*
X42238094Y-32883619D02*
X42261904Y-32907428D01*
X42261904Y-32907428D02*
X42285713Y-32955047D01*
X42285713Y-32955047D02*
X42285713Y-33026476D01*
X42285713Y-33026476D02*
X42261904Y-33074095D01*
X42261904Y-33074095D02*
X42238094Y-33097904D01*
X42238094Y-33097904D02*
X42190475Y-33121714D01*
X42190475Y-33121714D02*
X41999999Y-33121714D01*
X42499999Y-33359809D02*
X42499999Y-32859809D01*
X67729855Y-14559404D02*
X67691759Y-14597500D01*
X67691759Y-14597500D02*
X67577474Y-14635595D01*
X67577474Y-14635595D02*
X67501283Y-14635595D01*
X67501283Y-14635595D02*
X67386997Y-14597500D01*
X67386997Y-14597500D02*
X67310807Y-14521309D01*
X67310807Y-14521309D02*
X67272712Y-14445119D01*
X67272712Y-14445119D02*
X67234616Y-14292738D01*
X67234616Y-14292738D02*
X67234616Y-14178452D01*
X67234616Y-14178452D02*
X67272712Y-14026071D01*
X67272712Y-14026071D02*
X67310807Y-13949880D01*
X67310807Y-13949880D02*
X67386997Y-13873690D01*
X67386997Y-13873690D02*
X67501283Y-13835595D01*
X67501283Y-13835595D02*
X67577474Y-13835595D01*
X67577474Y-13835595D02*
X67691759Y-13873690D01*
X67691759Y-13873690D02*
X67729855Y-13911785D01*
X68034616Y-14597500D02*
X68148902Y-14635595D01*
X68148902Y-14635595D02*
X68339378Y-14635595D01*
X68339378Y-14635595D02*
X68415569Y-14597500D01*
X68415569Y-14597500D02*
X68453664Y-14559404D01*
X68453664Y-14559404D02*
X68491759Y-14483214D01*
X68491759Y-14483214D02*
X68491759Y-14407023D01*
X68491759Y-14407023D02*
X68453664Y-14330833D01*
X68453664Y-14330833D02*
X68415569Y-14292738D01*
X68415569Y-14292738D02*
X68339378Y-14254642D01*
X68339378Y-14254642D02*
X68186997Y-14216547D01*
X68186997Y-14216547D02*
X68110807Y-14178452D01*
X68110807Y-14178452D02*
X68072712Y-14140357D01*
X68072712Y-14140357D02*
X68034616Y-14064166D01*
X68034616Y-14064166D02*
X68034616Y-13987976D01*
X68034616Y-13987976D02*
X68072712Y-13911785D01*
X68072712Y-13911785D02*
X68110807Y-13873690D01*
X68110807Y-13873690D02*
X68186997Y-13835595D01*
X68186997Y-13835595D02*
X68377474Y-13835595D01*
X68377474Y-13835595D02*
X68491759Y-13873690D01*
X67272712Y-17211595D02*
X67272712Y-16411595D01*
X67272712Y-16411595D02*
X67463188Y-16411595D01*
X67463188Y-16411595D02*
X67577474Y-16449690D01*
X67577474Y-16449690D02*
X67653664Y-16525880D01*
X67653664Y-16525880D02*
X67691759Y-16602071D01*
X67691759Y-16602071D02*
X67729855Y-16754452D01*
X67729855Y-16754452D02*
X67729855Y-16868738D01*
X67729855Y-16868738D02*
X67691759Y-17021119D01*
X67691759Y-17021119D02*
X67653664Y-17097309D01*
X67653664Y-17097309D02*
X67577474Y-17173500D01*
X67577474Y-17173500D02*
X67463188Y-17211595D01*
X67463188Y-17211595D02*
X67272712Y-17211595D01*
X68529855Y-17135404D02*
X68491759Y-17173500D01*
X68491759Y-17173500D02*
X68377474Y-17211595D01*
X68377474Y-17211595D02*
X68301283Y-17211595D01*
X68301283Y-17211595D02*
X68186997Y-17173500D01*
X68186997Y-17173500D02*
X68110807Y-17097309D01*
X68110807Y-17097309D02*
X68072712Y-17021119D01*
X68072712Y-17021119D02*
X68034616Y-16868738D01*
X68034616Y-16868738D02*
X68034616Y-16754452D01*
X68034616Y-16754452D02*
X68072712Y-16602071D01*
X68072712Y-16602071D02*
X68110807Y-16525880D01*
X68110807Y-16525880D02*
X68186997Y-16449690D01*
X68186997Y-16449690D02*
X68301283Y-16411595D01*
X68301283Y-16411595D02*
X68377474Y-16411595D01*
X68377474Y-16411595D02*
X68491759Y-16449690D01*
X68491759Y-16449690D02*
X68529855Y-16487785D01*
X67729855Y-19787595D02*
X67463188Y-19406642D01*
X67272712Y-19787595D02*
X67272712Y-18987595D01*
X67272712Y-18987595D02*
X67577474Y-18987595D01*
X67577474Y-18987595D02*
X67653664Y-19025690D01*
X67653664Y-19025690D02*
X67691759Y-19063785D01*
X67691759Y-19063785D02*
X67729855Y-19139976D01*
X67729855Y-19139976D02*
X67729855Y-19254261D01*
X67729855Y-19254261D02*
X67691759Y-19330452D01*
X67691759Y-19330452D02*
X67653664Y-19368547D01*
X67653664Y-19368547D02*
X67577474Y-19406642D01*
X67577474Y-19406642D02*
X67272712Y-19406642D01*
X68072712Y-19368547D02*
X68339378Y-19368547D01*
X68453664Y-19787595D02*
X68072712Y-19787595D01*
X68072712Y-19787595D02*
X68072712Y-18987595D01*
X68072712Y-18987595D02*
X68453664Y-18987595D01*
X68758426Y-19749500D02*
X68872712Y-19787595D01*
X68872712Y-19787595D02*
X69063188Y-19787595D01*
X69063188Y-19787595D02*
X69139379Y-19749500D01*
X69139379Y-19749500D02*
X69177474Y-19711404D01*
X69177474Y-19711404D02*
X69215569Y-19635214D01*
X69215569Y-19635214D02*
X69215569Y-19559023D01*
X69215569Y-19559023D02*
X69177474Y-19482833D01*
X69177474Y-19482833D02*
X69139379Y-19444738D01*
X69139379Y-19444738D02*
X69063188Y-19406642D01*
X69063188Y-19406642D02*
X68910807Y-19368547D01*
X68910807Y-19368547D02*
X68834617Y-19330452D01*
X68834617Y-19330452D02*
X68796522Y-19292357D01*
X68796522Y-19292357D02*
X68758426Y-19216166D01*
X68758426Y-19216166D02*
X68758426Y-19139976D01*
X68758426Y-19139976D02*
X68796522Y-19063785D01*
X68796522Y-19063785D02*
X68834617Y-19025690D01*
X68834617Y-19025690D02*
X68910807Y-18987595D01*
X68910807Y-18987595D02*
X69101284Y-18987595D01*
X69101284Y-18987595D02*
X69215569Y-19025690D01*
X67234616Y-22325500D02*
X67348902Y-22363595D01*
X67348902Y-22363595D02*
X67539378Y-22363595D01*
X67539378Y-22363595D02*
X67615569Y-22325500D01*
X67615569Y-22325500D02*
X67653664Y-22287404D01*
X67653664Y-22287404D02*
X67691759Y-22211214D01*
X67691759Y-22211214D02*
X67691759Y-22135023D01*
X67691759Y-22135023D02*
X67653664Y-22058833D01*
X67653664Y-22058833D02*
X67615569Y-22020738D01*
X67615569Y-22020738D02*
X67539378Y-21982642D01*
X67539378Y-21982642D02*
X67386997Y-21944547D01*
X67386997Y-21944547D02*
X67310807Y-21906452D01*
X67310807Y-21906452D02*
X67272712Y-21868357D01*
X67272712Y-21868357D02*
X67234616Y-21792166D01*
X67234616Y-21792166D02*
X67234616Y-21715976D01*
X67234616Y-21715976D02*
X67272712Y-21639785D01*
X67272712Y-21639785D02*
X67310807Y-21601690D01*
X67310807Y-21601690D02*
X67386997Y-21563595D01*
X67386997Y-21563595D02*
X67577474Y-21563595D01*
X67577474Y-21563595D02*
X67691759Y-21601690D01*
X68034617Y-22363595D02*
X68034617Y-21563595D01*
X68034617Y-21563595D02*
X68225093Y-21563595D01*
X68225093Y-21563595D02*
X68339379Y-21601690D01*
X68339379Y-21601690D02*
X68415569Y-21677880D01*
X68415569Y-21677880D02*
X68453664Y-21754071D01*
X68453664Y-21754071D02*
X68491760Y-21906452D01*
X68491760Y-21906452D02*
X68491760Y-22020738D01*
X68491760Y-22020738D02*
X68453664Y-22173119D01*
X68453664Y-22173119D02*
X68415569Y-22249309D01*
X68415569Y-22249309D02*
X68339379Y-22325500D01*
X68339379Y-22325500D02*
X68225093Y-22363595D01*
X68225093Y-22363595D02*
X68034617Y-22363595D01*
X68796521Y-22135023D02*
X69177474Y-22135023D01*
X68720331Y-22363595D02*
X68986998Y-21563595D01*
X68986998Y-21563595D02*
X69253664Y-22363595D01*
X67234616Y-24901500D02*
X67348902Y-24939595D01*
X67348902Y-24939595D02*
X67539378Y-24939595D01*
X67539378Y-24939595D02*
X67615569Y-24901500D01*
X67615569Y-24901500D02*
X67653664Y-24863404D01*
X67653664Y-24863404D02*
X67691759Y-24787214D01*
X67691759Y-24787214D02*
X67691759Y-24711023D01*
X67691759Y-24711023D02*
X67653664Y-24634833D01*
X67653664Y-24634833D02*
X67615569Y-24596738D01*
X67615569Y-24596738D02*
X67539378Y-24558642D01*
X67539378Y-24558642D02*
X67386997Y-24520547D01*
X67386997Y-24520547D02*
X67310807Y-24482452D01*
X67310807Y-24482452D02*
X67272712Y-24444357D01*
X67272712Y-24444357D02*
X67234616Y-24368166D01*
X67234616Y-24368166D02*
X67234616Y-24291976D01*
X67234616Y-24291976D02*
X67272712Y-24215785D01*
X67272712Y-24215785D02*
X67310807Y-24177690D01*
X67310807Y-24177690D02*
X67386997Y-24139595D01*
X67386997Y-24139595D02*
X67577474Y-24139595D01*
X67577474Y-24139595D02*
X67691759Y-24177690D01*
X68491760Y-24863404D02*
X68453664Y-24901500D01*
X68453664Y-24901500D02*
X68339379Y-24939595D01*
X68339379Y-24939595D02*
X68263188Y-24939595D01*
X68263188Y-24939595D02*
X68148902Y-24901500D01*
X68148902Y-24901500D02*
X68072712Y-24825309D01*
X68072712Y-24825309D02*
X68034617Y-24749119D01*
X68034617Y-24749119D02*
X67996521Y-24596738D01*
X67996521Y-24596738D02*
X67996521Y-24482452D01*
X67996521Y-24482452D02*
X68034617Y-24330071D01*
X68034617Y-24330071D02*
X68072712Y-24253880D01*
X68072712Y-24253880D02*
X68148902Y-24177690D01*
X68148902Y-24177690D02*
X68263188Y-24139595D01*
X68263188Y-24139595D02*
X68339379Y-24139595D01*
X68339379Y-24139595D02*
X68453664Y-24177690D01*
X68453664Y-24177690D02*
X68491760Y-24215785D01*
X69215569Y-24939595D02*
X68834617Y-24939595D01*
X68834617Y-24939595D02*
X68834617Y-24139595D01*
X67158426Y-26715595D02*
X67425093Y-27515595D01*
X67425093Y-27515595D02*
X67691759Y-26715595D01*
X68415569Y-27439404D02*
X68377473Y-27477500D01*
X68377473Y-27477500D02*
X68263188Y-27515595D01*
X68263188Y-27515595D02*
X68186997Y-27515595D01*
X68186997Y-27515595D02*
X68072711Y-27477500D01*
X68072711Y-27477500D02*
X67996521Y-27401309D01*
X67996521Y-27401309D02*
X67958426Y-27325119D01*
X67958426Y-27325119D02*
X67920330Y-27172738D01*
X67920330Y-27172738D02*
X67920330Y-27058452D01*
X67920330Y-27058452D02*
X67958426Y-26906071D01*
X67958426Y-26906071D02*
X67996521Y-26829880D01*
X67996521Y-26829880D02*
X68072711Y-26753690D01*
X68072711Y-26753690D02*
X68186997Y-26715595D01*
X68186997Y-26715595D02*
X68263188Y-26715595D01*
X68263188Y-26715595D02*
X68377473Y-26753690D01*
X68377473Y-26753690D02*
X68415569Y-26791785D01*
X69215569Y-27439404D02*
X69177473Y-27477500D01*
X69177473Y-27477500D02*
X69063188Y-27515595D01*
X69063188Y-27515595D02*
X68986997Y-27515595D01*
X68986997Y-27515595D02*
X68872711Y-27477500D01*
X68872711Y-27477500D02*
X68796521Y-27401309D01*
X68796521Y-27401309D02*
X68758426Y-27325119D01*
X68758426Y-27325119D02*
X68720330Y-27172738D01*
X68720330Y-27172738D02*
X68720330Y-27058452D01*
X68720330Y-27058452D02*
X68758426Y-26906071D01*
X68758426Y-26906071D02*
X68796521Y-26829880D01*
X68796521Y-26829880D02*
X68872711Y-26753690D01*
X68872711Y-26753690D02*
X68986997Y-26715595D01*
X68986997Y-26715595D02*
X69063188Y-26715595D01*
X69063188Y-26715595D02*
X69177473Y-26753690D01*
X69177473Y-26753690D02*
X69215569Y-26791785D01*
X67691759Y-29329690D02*
X67615569Y-29291595D01*
X67615569Y-29291595D02*
X67501283Y-29291595D01*
X67501283Y-29291595D02*
X67386997Y-29329690D01*
X67386997Y-29329690D02*
X67310807Y-29405880D01*
X67310807Y-29405880D02*
X67272712Y-29482071D01*
X67272712Y-29482071D02*
X67234616Y-29634452D01*
X67234616Y-29634452D02*
X67234616Y-29748738D01*
X67234616Y-29748738D02*
X67272712Y-29901119D01*
X67272712Y-29901119D02*
X67310807Y-29977309D01*
X67310807Y-29977309D02*
X67386997Y-30053500D01*
X67386997Y-30053500D02*
X67501283Y-30091595D01*
X67501283Y-30091595D02*
X67577474Y-30091595D01*
X67577474Y-30091595D02*
X67691759Y-30053500D01*
X67691759Y-30053500D02*
X67729855Y-30015404D01*
X67729855Y-30015404D02*
X67729855Y-29748738D01*
X67729855Y-29748738D02*
X67577474Y-29748738D01*
X68072712Y-30091595D02*
X68072712Y-29291595D01*
X68072712Y-29291595D02*
X68529855Y-30091595D01*
X68529855Y-30091595D02*
X68529855Y-29291595D01*
X68910807Y-30091595D02*
X68910807Y-29291595D01*
X68910807Y-29291595D02*
X69101283Y-29291595D01*
X69101283Y-29291595D02*
X69215569Y-29329690D01*
X69215569Y-29329690D02*
X69291759Y-29405880D01*
X69291759Y-29405880D02*
X69329854Y-29482071D01*
X69329854Y-29482071D02*
X69367950Y-29634452D01*
X69367950Y-29634452D02*
X69367950Y-29748738D01*
X69367950Y-29748738D02*
X69329854Y-29901119D01*
X69329854Y-29901119D02*
X69291759Y-29977309D01*
X69291759Y-29977309D02*
X69215569Y-30053500D01*
X69215569Y-30053500D02*
X69101283Y-30091595D01*
X69101283Y-30091595D02*
X68910807Y-30091595D01*
X36666667Y-25859809D02*
X36666667Y-25359809D01*
X36880953Y-25407428D02*
X36904762Y-25383619D01*
X36904762Y-25383619D02*
X36952381Y-25359809D01*
X36952381Y-25359809D02*
X37071429Y-25359809D01*
X37071429Y-25359809D02*
X37119048Y-25383619D01*
X37119048Y-25383619D02*
X37142857Y-25407428D01*
X37142857Y-25407428D02*
X37166667Y-25455047D01*
X37166667Y-25455047D02*
X37166667Y-25502666D01*
X37166667Y-25502666D02*
X37142857Y-25574095D01*
X37142857Y-25574095D02*
X36857143Y-25859809D01*
X36857143Y-25859809D02*
X37166667Y-25859809D01*
X37666666Y-25812190D02*
X37642857Y-25836000D01*
X37642857Y-25836000D02*
X37571428Y-25859809D01*
X37571428Y-25859809D02*
X37523809Y-25859809D01*
X37523809Y-25859809D02*
X37452381Y-25836000D01*
X37452381Y-25836000D02*
X37404762Y-25788380D01*
X37404762Y-25788380D02*
X37380952Y-25740761D01*
X37380952Y-25740761D02*
X37357143Y-25645523D01*
X37357143Y-25645523D02*
X37357143Y-25574095D01*
X37357143Y-25574095D02*
X37380952Y-25478857D01*
X37380952Y-25478857D02*
X37404762Y-25431238D01*
X37404762Y-25431238D02*
X37452381Y-25383619D01*
X37452381Y-25383619D02*
X37523809Y-25359809D01*
X37523809Y-25359809D02*
X37571428Y-25359809D01*
X37571428Y-25359809D02*
X37642857Y-25383619D01*
X37642857Y-25383619D02*
X37666666Y-25407428D01*
X38357142Y-25359809D02*
X38452380Y-25359809D01*
X38452380Y-25359809D02*
X38499999Y-25383619D01*
X38499999Y-25383619D02*
X38547618Y-25431238D01*
X38547618Y-25431238D02*
X38571428Y-25526476D01*
X38571428Y-25526476D02*
X38571428Y-25693142D01*
X38571428Y-25693142D02*
X38547618Y-25788380D01*
X38547618Y-25788380D02*
X38499999Y-25836000D01*
X38499999Y-25836000D02*
X38452380Y-25859809D01*
X38452380Y-25859809D02*
X38357142Y-25859809D01*
X38357142Y-25859809D02*
X38309523Y-25836000D01*
X38309523Y-25836000D02*
X38261904Y-25788380D01*
X38261904Y-25788380D02*
X38238095Y-25693142D01*
X38238095Y-25693142D02*
X38238095Y-25526476D01*
X38238095Y-25526476D02*
X38261904Y-25431238D01*
X38261904Y-25431238D02*
X38309523Y-25383619D01*
X38309523Y-25383619D02*
X38357142Y-25359809D01*
X38785714Y-25859809D02*
X38785714Y-25359809D01*
X38785714Y-25359809D02*
X39071428Y-25859809D01*
X39071428Y-25859809D02*
X39071428Y-25359809D01*
X40047619Y-25336000D02*
X39619048Y-25978857D01*
X40571429Y-25836000D02*
X40642857Y-25859809D01*
X40642857Y-25859809D02*
X40761905Y-25859809D01*
X40761905Y-25859809D02*
X40809524Y-25836000D01*
X40809524Y-25836000D02*
X40833333Y-25812190D01*
X40833333Y-25812190D02*
X40857143Y-25764571D01*
X40857143Y-25764571D02*
X40857143Y-25716952D01*
X40857143Y-25716952D02*
X40833333Y-25669333D01*
X40833333Y-25669333D02*
X40809524Y-25645523D01*
X40809524Y-25645523D02*
X40761905Y-25621714D01*
X40761905Y-25621714D02*
X40666667Y-25597904D01*
X40666667Y-25597904D02*
X40619048Y-25574095D01*
X40619048Y-25574095D02*
X40595238Y-25550285D01*
X40595238Y-25550285D02*
X40571429Y-25502666D01*
X40571429Y-25502666D02*
X40571429Y-25455047D01*
X40571429Y-25455047D02*
X40595238Y-25407428D01*
X40595238Y-25407428D02*
X40619048Y-25383619D01*
X40619048Y-25383619D02*
X40666667Y-25359809D01*
X40666667Y-25359809D02*
X40785714Y-25359809D01*
X40785714Y-25359809D02*
X40857143Y-25383619D01*
X41071428Y-25859809D02*
X41071428Y-25359809D01*
X41071428Y-25359809D02*
X41261904Y-25359809D01*
X41261904Y-25359809D02*
X41309523Y-25383619D01*
X41309523Y-25383619D02*
X41333333Y-25407428D01*
X41333333Y-25407428D02*
X41357142Y-25455047D01*
X41357142Y-25455047D02*
X41357142Y-25526476D01*
X41357142Y-25526476D02*
X41333333Y-25574095D01*
X41333333Y-25574095D02*
X41309523Y-25597904D01*
X41309523Y-25597904D02*
X41261904Y-25621714D01*
X41261904Y-25621714D02*
X41071428Y-25621714D01*
X41571428Y-25859809D02*
X41571428Y-25359809D01*
X42285713Y-25359809D02*
X42380951Y-25359809D01*
X42380951Y-25359809D02*
X42428570Y-25383619D01*
X42428570Y-25383619D02*
X42476189Y-25431238D01*
X42476189Y-25431238D02*
X42499999Y-25526476D01*
X42499999Y-25526476D02*
X42499999Y-25693142D01*
X42499999Y-25693142D02*
X42476189Y-25788380D01*
X42476189Y-25788380D02*
X42428570Y-25836000D01*
X42428570Y-25836000D02*
X42380951Y-25859809D01*
X42380951Y-25859809D02*
X42285713Y-25859809D01*
X42285713Y-25859809D02*
X42238094Y-25836000D01*
X42238094Y-25836000D02*
X42190475Y-25788380D01*
X42190475Y-25788380D02*
X42166666Y-25693142D01*
X42166666Y-25693142D02*
X42166666Y-25526476D01*
X42166666Y-25526476D02*
X42190475Y-25431238D01*
X42190475Y-25431238D02*
X42238094Y-25383619D01*
X42238094Y-25383619D02*
X42285713Y-25359809D01*
X42880952Y-25597904D02*
X42714285Y-25597904D01*
X42714285Y-25859809D02*
X42714285Y-25359809D01*
X42714285Y-25359809D02*
X42952380Y-25359809D01*
X43309523Y-25597904D02*
X43142856Y-25597904D01*
X43142856Y-25859809D02*
X43142856Y-25359809D01*
X43142856Y-25359809D02*
X43380951Y-25359809D01*
X36666667Y-27109809D02*
X36666667Y-26609809D01*
X36880953Y-26657428D02*
X36904762Y-26633619D01*
X36904762Y-26633619D02*
X36952381Y-26609809D01*
X36952381Y-26609809D02*
X37071429Y-26609809D01*
X37071429Y-26609809D02*
X37119048Y-26633619D01*
X37119048Y-26633619D02*
X37142857Y-26657428D01*
X37142857Y-26657428D02*
X37166667Y-26705047D01*
X37166667Y-26705047D02*
X37166667Y-26752666D01*
X37166667Y-26752666D02*
X37142857Y-26824095D01*
X37142857Y-26824095D02*
X36857143Y-27109809D01*
X36857143Y-27109809D02*
X37166667Y-27109809D01*
X37666666Y-27062190D02*
X37642857Y-27086000D01*
X37642857Y-27086000D02*
X37571428Y-27109809D01*
X37571428Y-27109809D02*
X37523809Y-27109809D01*
X37523809Y-27109809D02*
X37452381Y-27086000D01*
X37452381Y-27086000D02*
X37404762Y-27038380D01*
X37404762Y-27038380D02*
X37380952Y-26990761D01*
X37380952Y-26990761D02*
X37357143Y-26895523D01*
X37357143Y-26895523D02*
X37357143Y-26824095D01*
X37357143Y-26824095D02*
X37380952Y-26728857D01*
X37380952Y-26728857D02*
X37404762Y-26681238D01*
X37404762Y-26681238D02*
X37452381Y-26633619D01*
X37452381Y-26633619D02*
X37523809Y-26609809D01*
X37523809Y-26609809D02*
X37571428Y-26609809D01*
X37571428Y-26609809D02*
X37642857Y-26633619D01*
X37642857Y-26633619D02*
X37666666Y-26657428D01*
X38357142Y-26609809D02*
X38452380Y-26609809D01*
X38452380Y-26609809D02*
X38499999Y-26633619D01*
X38499999Y-26633619D02*
X38547618Y-26681238D01*
X38547618Y-26681238D02*
X38571428Y-26776476D01*
X38571428Y-26776476D02*
X38571428Y-26943142D01*
X38571428Y-26943142D02*
X38547618Y-27038380D01*
X38547618Y-27038380D02*
X38499999Y-27086000D01*
X38499999Y-27086000D02*
X38452380Y-27109809D01*
X38452380Y-27109809D02*
X38357142Y-27109809D01*
X38357142Y-27109809D02*
X38309523Y-27086000D01*
X38309523Y-27086000D02*
X38261904Y-27038380D01*
X38261904Y-27038380D02*
X38238095Y-26943142D01*
X38238095Y-26943142D02*
X38238095Y-26776476D01*
X38238095Y-26776476D02*
X38261904Y-26681238D01*
X38261904Y-26681238D02*
X38309523Y-26633619D01*
X38309523Y-26633619D02*
X38357142Y-26609809D01*
X38785714Y-27109809D02*
X38785714Y-26609809D01*
X38785714Y-26609809D02*
X39071428Y-27109809D01*
X39071428Y-27109809D02*
X39071428Y-26609809D01*
X40047619Y-26586000D02*
X39619048Y-27228857D01*
X40571429Y-27086000D02*
X40642857Y-27109809D01*
X40642857Y-27109809D02*
X40761905Y-27109809D01*
X40761905Y-27109809D02*
X40809524Y-27086000D01*
X40809524Y-27086000D02*
X40833333Y-27062190D01*
X40833333Y-27062190D02*
X40857143Y-27014571D01*
X40857143Y-27014571D02*
X40857143Y-26966952D01*
X40857143Y-26966952D02*
X40833333Y-26919333D01*
X40833333Y-26919333D02*
X40809524Y-26895523D01*
X40809524Y-26895523D02*
X40761905Y-26871714D01*
X40761905Y-26871714D02*
X40666667Y-26847904D01*
X40666667Y-26847904D02*
X40619048Y-26824095D01*
X40619048Y-26824095D02*
X40595238Y-26800285D01*
X40595238Y-26800285D02*
X40571429Y-26752666D01*
X40571429Y-26752666D02*
X40571429Y-26705047D01*
X40571429Y-26705047D02*
X40595238Y-26657428D01*
X40595238Y-26657428D02*
X40619048Y-26633619D01*
X40619048Y-26633619D02*
X40666667Y-26609809D01*
X40666667Y-26609809D02*
X40785714Y-26609809D01*
X40785714Y-26609809D02*
X40857143Y-26633619D01*
X41071428Y-27109809D02*
X41071428Y-26609809D01*
X41071428Y-26609809D02*
X41261904Y-26609809D01*
X41261904Y-26609809D02*
X41309523Y-26633619D01*
X41309523Y-26633619D02*
X41333333Y-26657428D01*
X41333333Y-26657428D02*
X41357142Y-26705047D01*
X41357142Y-26705047D02*
X41357142Y-26776476D01*
X41357142Y-26776476D02*
X41333333Y-26824095D01*
X41333333Y-26824095D02*
X41309523Y-26847904D01*
X41309523Y-26847904D02*
X41261904Y-26871714D01*
X41261904Y-26871714D02*
X41071428Y-26871714D01*
X41571428Y-27109809D02*
X41571428Y-26609809D01*
X42285713Y-26609809D02*
X42380951Y-26609809D01*
X42380951Y-26609809D02*
X42428570Y-26633619D01*
X42428570Y-26633619D02*
X42476189Y-26681238D01*
X42476189Y-26681238D02*
X42499999Y-26776476D01*
X42499999Y-26776476D02*
X42499999Y-26943142D01*
X42499999Y-26943142D02*
X42476189Y-27038380D01*
X42476189Y-27038380D02*
X42428570Y-27086000D01*
X42428570Y-27086000D02*
X42380951Y-27109809D01*
X42380951Y-27109809D02*
X42285713Y-27109809D01*
X42285713Y-27109809D02*
X42238094Y-27086000D01*
X42238094Y-27086000D02*
X42190475Y-27038380D01*
X42190475Y-27038380D02*
X42166666Y-26943142D01*
X42166666Y-26943142D02*
X42166666Y-26776476D01*
X42166666Y-26776476D02*
X42190475Y-26681238D01*
X42190475Y-26681238D02*
X42238094Y-26633619D01*
X42238094Y-26633619D02*
X42285713Y-26609809D01*
X42880952Y-26847904D02*
X42714285Y-26847904D01*
X42714285Y-27109809D02*
X42714285Y-26609809D01*
X42714285Y-26609809D02*
X42952380Y-26609809D01*
X43309523Y-26847904D02*
X43142856Y-26847904D01*
X43142856Y-27109809D02*
X43142856Y-26609809D01*
X43142856Y-26609809D02*
X43380951Y-26609809D01*
X36666667Y-29609809D02*
X36666667Y-29109809D01*
X36880953Y-29157428D02*
X36904762Y-29133619D01*
X36904762Y-29133619D02*
X36952381Y-29109809D01*
X36952381Y-29109809D02*
X37071429Y-29109809D01*
X37071429Y-29109809D02*
X37119048Y-29133619D01*
X37119048Y-29133619D02*
X37142857Y-29157428D01*
X37142857Y-29157428D02*
X37166667Y-29205047D01*
X37166667Y-29205047D02*
X37166667Y-29252666D01*
X37166667Y-29252666D02*
X37142857Y-29324095D01*
X37142857Y-29324095D02*
X36857143Y-29609809D01*
X36857143Y-29609809D02*
X37166667Y-29609809D01*
X37666666Y-29562190D02*
X37642857Y-29586000D01*
X37642857Y-29586000D02*
X37571428Y-29609809D01*
X37571428Y-29609809D02*
X37523809Y-29609809D01*
X37523809Y-29609809D02*
X37452381Y-29586000D01*
X37452381Y-29586000D02*
X37404762Y-29538380D01*
X37404762Y-29538380D02*
X37380952Y-29490761D01*
X37380952Y-29490761D02*
X37357143Y-29395523D01*
X37357143Y-29395523D02*
X37357143Y-29324095D01*
X37357143Y-29324095D02*
X37380952Y-29228857D01*
X37380952Y-29228857D02*
X37404762Y-29181238D01*
X37404762Y-29181238D02*
X37452381Y-29133619D01*
X37452381Y-29133619D02*
X37523809Y-29109809D01*
X37523809Y-29109809D02*
X37571428Y-29109809D01*
X37571428Y-29109809D02*
X37642857Y-29133619D01*
X37642857Y-29133619D02*
X37666666Y-29157428D01*
X38357142Y-29109809D02*
X38452380Y-29109809D01*
X38452380Y-29109809D02*
X38499999Y-29133619D01*
X38499999Y-29133619D02*
X38547618Y-29181238D01*
X38547618Y-29181238D02*
X38571428Y-29276476D01*
X38571428Y-29276476D02*
X38571428Y-29443142D01*
X38571428Y-29443142D02*
X38547618Y-29538380D01*
X38547618Y-29538380D02*
X38499999Y-29586000D01*
X38499999Y-29586000D02*
X38452380Y-29609809D01*
X38452380Y-29609809D02*
X38357142Y-29609809D01*
X38357142Y-29609809D02*
X38309523Y-29586000D01*
X38309523Y-29586000D02*
X38261904Y-29538380D01*
X38261904Y-29538380D02*
X38238095Y-29443142D01*
X38238095Y-29443142D02*
X38238095Y-29276476D01*
X38238095Y-29276476D02*
X38261904Y-29181238D01*
X38261904Y-29181238D02*
X38309523Y-29133619D01*
X38309523Y-29133619D02*
X38357142Y-29109809D01*
X38785714Y-29609809D02*
X38785714Y-29109809D01*
X38785714Y-29109809D02*
X39071428Y-29609809D01*
X39071428Y-29609809D02*
X39071428Y-29109809D01*
X40047619Y-29086000D02*
X39619048Y-29728857D01*
X40571429Y-29586000D02*
X40642857Y-29609809D01*
X40642857Y-29609809D02*
X40761905Y-29609809D01*
X40761905Y-29609809D02*
X40809524Y-29586000D01*
X40809524Y-29586000D02*
X40833333Y-29562190D01*
X40833333Y-29562190D02*
X40857143Y-29514571D01*
X40857143Y-29514571D02*
X40857143Y-29466952D01*
X40857143Y-29466952D02*
X40833333Y-29419333D01*
X40833333Y-29419333D02*
X40809524Y-29395523D01*
X40809524Y-29395523D02*
X40761905Y-29371714D01*
X40761905Y-29371714D02*
X40666667Y-29347904D01*
X40666667Y-29347904D02*
X40619048Y-29324095D01*
X40619048Y-29324095D02*
X40595238Y-29300285D01*
X40595238Y-29300285D02*
X40571429Y-29252666D01*
X40571429Y-29252666D02*
X40571429Y-29205047D01*
X40571429Y-29205047D02*
X40595238Y-29157428D01*
X40595238Y-29157428D02*
X40619048Y-29133619D01*
X40619048Y-29133619D02*
X40666667Y-29109809D01*
X40666667Y-29109809D02*
X40785714Y-29109809D01*
X40785714Y-29109809D02*
X40857143Y-29133619D01*
X41071428Y-29609809D02*
X41071428Y-29109809D01*
X41071428Y-29109809D02*
X41261904Y-29109809D01*
X41261904Y-29109809D02*
X41309523Y-29133619D01*
X41309523Y-29133619D02*
X41333333Y-29157428D01*
X41333333Y-29157428D02*
X41357142Y-29205047D01*
X41357142Y-29205047D02*
X41357142Y-29276476D01*
X41357142Y-29276476D02*
X41333333Y-29324095D01*
X41333333Y-29324095D02*
X41309523Y-29347904D01*
X41309523Y-29347904D02*
X41261904Y-29371714D01*
X41261904Y-29371714D02*
X41071428Y-29371714D01*
X41571428Y-29609809D02*
X41571428Y-29109809D01*
X42285713Y-29109809D02*
X42380951Y-29109809D01*
X42380951Y-29109809D02*
X42428570Y-29133619D01*
X42428570Y-29133619D02*
X42476189Y-29181238D01*
X42476189Y-29181238D02*
X42499999Y-29276476D01*
X42499999Y-29276476D02*
X42499999Y-29443142D01*
X42499999Y-29443142D02*
X42476189Y-29538380D01*
X42476189Y-29538380D02*
X42428570Y-29586000D01*
X42428570Y-29586000D02*
X42380951Y-29609809D01*
X42380951Y-29609809D02*
X42285713Y-29609809D01*
X42285713Y-29609809D02*
X42238094Y-29586000D01*
X42238094Y-29586000D02*
X42190475Y-29538380D01*
X42190475Y-29538380D02*
X42166666Y-29443142D01*
X42166666Y-29443142D02*
X42166666Y-29276476D01*
X42166666Y-29276476D02*
X42190475Y-29181238D01*
X42190475Y-29181238D02*
X42238094Y-29133619D01*
X42238094Y-29133619D02*
X42285713Y-29109809D01*
X42880952Y-29347904D02*
X42714285Y-29347904D01*
X42714285Y-29609809D02*
X42714285Y-29109809D01*
X42714285Y-29109809D02*
X42952380Y-29109809D01*
X43309523Y-29347904D02*
X43142856Y-29347904D01*
X43142856Y-29609809D02*
X43142856Y-29109809D01*
X43142856Y-29109809D02*
X43380951Y-29109809D01*
X30595240Y-16224809D02*
X30690478Y-16224809D01*
X30690478Y-16224809D02*
X30738097Y-16248619D01*
X30738097Y-16248619D02*
X30785716Y-16296238D01*
X30785716Y-16296238D02*
X30809526Y-16391476D01*
X30809526Y-16391476D02*
X30809526Y-16558142D01*
X30809526Y-16558142D02*
X30785716Y-16653380D01*
X30785716Y-16653380D02*
X30738097Y-16701000D01*
X30738097Y-16701000D02*
X30690478Y-16724809D01*
X30690478Y-16724809D02*
X30595240Y-16724809D01*
X30595240Y-16724809D02*
X30547621Y-16701000D01*
X30547621Y-16701000D02*
X30500002Y-16653380D01*
X30500002Y-16653380D02*
X30476193Y-16558142D01*
X30476193Y-16558142D02*
X30476193Y-16391476D01*
X30476193Y-16391476D02*
X30500002Y-16296238D01*
X30500002Y-16296238D02*
X30547621Y-16248619D01*
X30547621Y-16248619D02*
X30595240Y-16224809D01*
X31261907Y-16724809D02*
X31023812Y-16724809D01*
X31023812Y-16724809D02*
X31023812Y-16224809D01*
X31428574Y-16462904D02*
X31595241Y-16462904D01*
X31666669Y-16724809D02*
X31428574Y-16724809D01*
X31428574Y-16724809D02*
X31428574Y-16224809D01*
X31428574Y-16224809D02*
X31666669Y-16224809D01*
X31880955Y-16724809D02*
X31880955Y-16224809D01*
X31880955Y-16224809D02*
X32000003Y-16224809D01*
X32000003Y-16224809D02*
X32071431Y-16248619D01*
X32071431Y-16248619D02*
X32119050Y-16296238D01*
X32119050Y-16296238D02*
X32142860Y-16343857D01*
X32142860Y-16343857D02*
X32166669Y-16439095D01*
X32166669Y-16439095D02*
X32166669Y-16510523D01*
X32166669Y-16510523D02*
X32142860Y-16605761D01*
X32142860Y-16605761D02*
X32119050Y-16653380D01*
X32119050Y-16653380D02*
X32071431Y-16701000D01*
X32071431Y-16701000D02*
X32000003Y-16724809D01*
X32000003Y-16724809D02*
X31880955Y-16724809D01*
X32738098Y-16272428D02*
X32761907Y-16248619D01*
X32761907Y-16248619D02*
X32809526Y-16224809D01*
X32809526Y-16224809D02*
X32928574Y-16224809D01*
X32928574Y-16224809D02*
X32976193Y-16248619D01*
X32976193Y-16248619D02*
X33000002Y-16272428D01*
X33000002Y-16272428D02*
X33023812Y-16320047D01*
X33023812Y-16320047D02*
X33023812Y-16367666D01*
X33023812Y-16367666D02*
X33000002Y-16439095D01*
X33000002Y-16439095D02*
X32714288Y-16724809D01*
X32714288Y-16724809D02*
X33023812Y-16724809D01*
X33238097Y-16677190D02*
X33261907Y-16701000D01*
X33261907Y-16701000D02*
X33238097Y-16724809D01*
X33238097Y-16724809D02*
X33214288Y-16701000D01*
X33214288Y-16701000D02*
X33238097Y-16677190D01*
X33238097Y-16677190D02*
X33238097Y-16724809D01*
X33690478Y-16391476D02*
X33690478Y-16724809D01*
X33571430Y-16201000D02*
X33452383Y-16558142D01*
X33452383Y-16558142D02*
X33761906Y-16558142D01*
X33928573Y-16272428D02*
X33952382Y-16248619D01*
X33952382Y-16248619D02*
X34000001Y-16224809D01*
X34000001Y-16224809D02*
X34119049Y-16224809D01*
X34119049Y-16224809D02*
X34166668Y-16248619D01*
X34166668Y-16248619D02*
X34190477Y-16272428D01*
X34190477Y-16272428D02*
X34214287Y-16320047D01*
X34214287Y-16320047D02*
X34214287Y-16367666D01*
X34214287Y-16367666D02*
X34190477Y-16439095D01*
X34190477Y-16439095D02*
X33904763Y-16724809D01*
X33904763Y-16724809D02*
X34214287Y-16724809D01*
X34404763Y-16224809D02*
X34404763Y-16320047D01*
X34595239Y-16224809D02*
X34595239Y-16320047D01*
X35190476Y-16534333D02*
X35571429Y-16534333D01*
X36166667Y-16272428D02*
X36190476Y-16248619D01*
X36190476Y-16248619D02*
X36238095Y-16224809D01*
X36238095Y-16224809D02*
X36357143Y-16224809D01*
X36357143Y-16224809D02*
X36404762Y-16248619D01*
X36404762Y-16248619D02*
X36428571Y-16272428D01*
X36428571Y-16272428D02*
X36452381Y-16320047D01*
X36452381Y-16320047D02*
X36452381Y-16367666D01*
X36452381Y-16367666D02*
X36428571Y-16439095D01*
X36428571Y-16439095D02*
X36142857Y-16724809D01*
X36142857Y-16724809D02*
X36452381Y-16724809D01*
X36880952Y-16391476D02*
X36880952Y-16724809D01*
X36761904Y-16201000D02*
X36642857Y-16558142D01*
X36642857Y-16558142D02*
X36952380Y-16558142D01*
X37523808Y-16391476D02*
X37523808Y-16891476D01*
X37523808Y-16415285D02*
X37571427Y-16391476D01*
X37571427Y-16391476D02*
X37666665Y-16391476D01*
X37666665Y-16391476D02*
X37714284Y-16415285D01*
X37714284Y-16415285D02*
X37738094Y-16439095D01*
X37738094Y-16439095D02*
X37761903Y-16486714D01*
X37761903Y-16486714D02*
X37761903Y-16629571D01*
X37761903Y-16629571D02*
X37738094Y-16677190D01*
X37738094Y-16677190D02*
X37714284Y-16701000D01*
X37714284Y-16701000D02*
X37666665Y-16724809D01*
X37666665Y-16724809D02*
X37571427Y-16724809D01*
X37571427Y-16724809D02*
X37523808Y-16701000D01*
X37976189Y-16724809D02*
X37976189Y-16391476D01*
X37976189Y-16224809D02*
X37952380Y-16248619D01*
X37952380Y-16248619D02*
X37976189Y-16272428D01*
X37976189Y-16272428D02*
X37999999Y-16248619D01*
X37999999Y-16248619D02*
X37976189Y-16224809D01*
X37976189Y-16224809D02*
X37976189Y-16272428D01*
X38214284Y-16391476D02*
X38214284Y-16724809D01*
X38214284Y-16439095D02*
X38238094Y-16415285D01*
X38238094Y-16415285D02*
X38285713Y-16391476D01*
X38285713Y-16391476D02*
X38357141Y-16391476D01*
X38357141Y-16391476D02*
X38404760Y-16415285D01*
X38404760Y-16415285D02*
X38428570Y-16462904D01*
X38428570Y-16462904D02*
X38428570Y-16724809D01*
X39261903Y-16701000D02*
X39214284Y-16724809D01*
X39214284Y-16724809D02*
X39119046Y-16724809D01*
X39119046Y-16724809D02*
X39071427Y-16701000D01*
X39071427Y-16701000D02*
X39047617Y-16677190D01*
X39047617Y-16677190D02*
X39023808Y-16629571D01*
X39023808Y-16629571D02*
X39023808Y-16486714D01*
X39023808Y-16486714D02*
X39047617Y-16439095D01*
X39047617Y-16439095D02*
X39071427Y-16415285D01*
X39071427Y-16415285D02*
X39119046Y-16391476D01*
X39119046Y-16391476D02*
X39214284Y-16391476D01*
X39214284Y-16391476D02*
X39261903Y-16415285D01*
X39547617Y-16724809D02*
X39499998Y-16701000D01*
X39499998Y-16701000D02*
X39476188Y-16677190D01*
X39476188Y-16677190D02*
X39452379Y-16629571D01*
X39452379Y-16629571D02*
X39452379Y-16486714D01*
X39452379Y-16486714D02*
X39476188Y-16439095D01*
X39476188Y-16439095D02*
X39499998Y-16415285D01*
X39499998Y-16415285D02*
X39547617Y-16391476D01*
X39547617Y-16391476D02*
X39619045Y-16391476D01*
X39619045Y-16391476D02*
X39666664Y-16415285D01*
X39666664Y-16415285D02*
X39690474Y-16439095D01*
X39690474Y-16439095D02*
X39714283Y-16486714D01*
X39714283Y-16486714D02*
X39714283Y-16629571D01*
X39714283Y-16629571D02*
X39690474Y-16677190D01*
X39690474Y-16677190D02*
X39666664Y-16701000D01*
X39666664Y-16701000D02*
X39619045Y-16724809D01*
X39619045Y-16724809D02*
X39547617Y-16724809D01*
X39928569Y-16391476D02*
X39928569Y-16724809D01*
X39928569Y-16439095D02*
X39952379Y-16415285D01*
X39952379Y-16415285D02*
X39999998Y-16391476D01*
X39999998Y-16391476D02*
X40071426Y-16391476D01*
X40071426Y-16391476D02*
X40119045Y-16415285D01*
X40119045Y-16415285D02*
X40142855Y-16462904D01*
X40142855Y-16462904D02*
X40142855Y-16724809D01*
X40380950Y-16391476D02*
X40380950Y-16724809D01*
X40380950Y-16439095D02*
X40404760Y-16415285D01*
X40404760Y-16415285D02*
X40452379Y-16391476D01*
X40452379Y-16391476D02*
X40523807Y-16391476D01*
X40523807Y-16391476D02*
X40571426Y-16415285D01*
X40571426Y-16415285D02*
X40595236Y-16462904D01*
X40595236Y-16462904D02*
X40595236Y-16724809D01*
X41023807Y-16701000D02*
X40976188Y-16724809D01*
X40976188Y-16724809D02*
X40880950Y-16724809D01*
X40880950Y-16724809D02*
X40833331Y-16701000D01*
X40833331Y-16701000D02*
X40809522Y-16653380D01*
X40809522Y-16653380D02*
X40809522Y-16462904D01*
X40809522Y-16462904D02*
X40833331Y-16415285D01*
X40833331Y-16415285D02*
X40880950Y-16391476D01*
X40880950Y-16391476D02*
X40976188Y-16391476D01*
X40976188Y-16391476D02*
X41023807Y-16415285D01*
X41023807Y-16415285D02*
X41047617Y-16462904D01*
X41047617Y-16462904D02*
X41047617Y-16510523D01*
X41047617Y-16510523D02*
X40809522Y-16558142D01*
X41476188Y-16701000D02*
X41428569Y-16724809D01*
X41428569Y-16724809D02*
X41333331Y-16724809D01*
X41333331Y-16724809D02*
X41285712Y-16701000D01*
X41285712Y-16701000D02*
X41261902Y-16677190D01*
X41261902Y-16677190D02*
X41238093Y-16629571D01*
X41238093Y-16629571D02*
X41238093Y-16486714D01*
X41238093Y-16486714D02*
X41261902Y-16439095D01*
X41261902Y-16439095D02*
X41285712Y-16415285D01*
X41285712Y-16415285D02*
X41333331Y-16391476D01*
X41333331Y-16391476D02*
X41428569Y-16391476D01*
X41428569Y-16391476D02*
X41476188Y-16415285D01*
X41619045Y-16391476D02*
X41809521Y-16391476D01*
X41690473Y-16224809D02*
X41690473Y-16653380D01*
X41690473Y-16653380D02*
X41714283Y-16701000D01*
X41714283Y-16701000D02*
X41761902Y-16724809D01*
X41761902Y-16724809D02*
X41809521Y-16724809D01*
X42047616Y-16724809D02*
X41999997Y-16701000D01*
X41999997Y-16701000D02*
X41976187Y-16677190D01*
X41976187Y-16677190D02*
X41952378Y-16629571D01*
X41952378Y-16629571D02*
X41952378Y-16486714D01*
X41952378Y-16486714D02*
X41976187Y-16439095D01*
X41976187Y-16439095D02*
X41999997Y-16415285D01*
X41999997Y-16415285D02*
X42047616Y-16391476D01*
X42047616Y-16391476D02*
X42119044Y-16391476D01*
X42119044Y-16391476D02*
X42166663Y-16415285D01*
X42166663Y-16415285D02*
X42190473Y-16439095D01*
X42190473Y-16439095D02*
X42214282Y-16486714D01*
X42214282Y-16486714D02*
X42214282Y-16629571D01*
X42214282Y-16629571D02*
X42190473Y-16677190D01*
X42190473Y-16677190D02*
X42166663Y-16701000D01*
X42166663Y-16701000D02*
X42119044Y-16724809D01*
X42119044Y-16724809D02*
X42047616Y-16724809D01*
X42428568Y-16724809D02*
X42428568Y-16391476D01*
X42428568Y-16486714D02*
X42452378Y-16439095D01*
X42452378Y-16439095D02*
X42476187Y-16415285D01*
X42476187Y-16415285D02*
X42523806Y-16391476D01*
X42523806Y-16391476D02*
X42571425Y-16391476D01*
X36761906Y-31609809D02*
X36857144Y-31609809D01*
X36857144Y-31609809D02*
X36904763Y-31633619D01*
X36904763Y-31633619D02*
X36952382Y-31681238D01*
X36952382Y-31681238D02*
X36976192Y-31776476D01*
X36976192Y-31776476D02*
X36976192Y-31943142D01*
X36976192Y-31943142D02*
X36952382Y-32038380D01*
X36952382Y-32038380D02*
X36904763Y-32086000D01*
X36904763Y-32086000D02*
X36857144Y-32109809D01*
X36857144Y-32109809D02*
X36761906Y-32109809D01*
X36761906Y-32109809D02*
X36714287Y-32086000D01*
X36714287Y-32086000D02*
X36666668Y-32038380D01*
X36666668Y-32038380D02*
X36642859Y-31943142D01*
X36642859Y-31943142D02*
X36642859Y-31776476D01*
X36642859Y-31776476D02*
X36666668Y-31681238D01*
X36666668Y-31681238D02*
X36714287Y-31633619D01*
X36714287Y-31633619D02*
X36761906Y-31609809D01*
X37190478Y-32109809D02*
X37190478Y-31609809D01*
X37190478Y-31609809D02*
X37476192Y-32109809D01*
X37476192Y-32109809D02*
X37476192Y-31609809D01*
X38095240Y-32109809D02*
X38095240Y-31609809D01*
X38500002Y-31847904D02*
X38333335Y-31847904D01*
X38333335Y-32109809D02*
X38333335Y-31609809D01*
X38333335Y-31609809D02*
X38571430Y-31609809D01*
X39071430Y-31609809D02*
X39238096Y-32109809D01*
X39238096Y-32109809D02*
X39404763Y-31609809D01*
X39857143Y-32062190D02*
X39833334Y-32086000D01*
X39833334Y-32086000D02*
X39761905Y-32109809D01*
X39761905Y-32109809D02*
X39714286Y-32109809D01*
X39714286Y-32109809D02*
X39642858Y-32086000D01*
X39642858Y-32086000D02*
X39595239Y-32038380D01*
X39595239Y-32038380D02*
X39571429Y-31990761D01*
X39571429Y-31990761D02*
X39547620Y-31895523D01*
X39547620Y-31895523D02*
X39547620Y-31824095D01*
X39547620Y-31824095D02*
X39571429Y-31728857D01*
X39571429Y-31728857D02*
X39595239Y-31681238D01*
X39595239Y-31681238D02*
X39642858Y-31633619D01*
X39642858Y-31633619D02*
X39714286Y-31609809D01*
X39714286Y-31609809D02*
X39761905Y-31609809D01*
X39761905Y-31609809D02*
X39833334Y-31633619D01*
X39833334Y-31633619D02*
X39857143Y-31657428D01*
X40357143Y-32062190D02*
X40333334Y-32086000D01*
X40333334Y-32086000D02*
X40261905Y-32109809D01*
X40261905Y-32109809D02*
X40214286Y-32109809D01*
X40214286Y-32109809D02*
X40142858Y-32086000D01*
X40142858Y-32086000D02*
X40095239Y-32038380D01*
X40095239Y-32038380D02*
X40071429Y-31990761D01*
X40071429Y-31990761D02*
X40047620Y-31895523D01*
X40047620Y-31895523D02*
X40047620Y-31824095D01*
X40047620Y-31824095D02*
X40071429Y-31728857D01*
X40071429Y-31728857D02*
X40095239Y-31681238D01*
X40095239Y-31681238D02*
X40142858Y-31633619D01*
X40142858Y-31633619D02*
X40214286Y-31609809D01*
X40214286Y-31609809D02*
X40261905Y-31609809D01*
X40261905Y-31609809D02*
X40333334Y-31633619D01*
X40333334Y-31633619D02*
X40357143Y-31657428D01*
X40952381Y-31776476D02*
X41333334Y-31919333D01*
X41333334Y-31919333D02*
X40952381Y-32062190D01*
X41904762Y-31609809D02*
X42214286Y-31609809D01*
X42214286Y-31609809D02*
X42047619Y-31800285D01*
X42047619Y-31800285D02*
X42119048Y-31800285D01*
X42119048Y-31800285D02*
X42166667Y-31824095D01*
X42166667Y-31824095D02*
X42190476Y-31847904D01*
X42190476Y-31847904D02*
X42214286Y-31895523D01*
X42214286Y-31895523D02*
X42214286Y-32014571D01*
X42214286Y-32014571D02*
X42190476Y-32062190D01*
X42190476Y-32062190D02*
X42166667Y-32086000D01*
X42166667Y-32086000D02*
X42119048Y-32109809D01*
X42119048Y-32109809D02*
X41976191Y-32109809D01*
X41976191Y-32109809D02*
X41928572Y-32086000D01*
X41928572Y-32086000D02*
X41904762Y-32062190D01*
X42428571Y-32062190D02*
X42452381Y-32086000D01*
X42452381Y-32086000D02*
X42428571Y-32109809D01*
X42428571Y-32109809D02*
X42404762Y-32086000D01*
X42404762Y-32086000D02*
X42428571Y-32062190D01*
X42428571Y-32062190D02*
X42428571Y-32109809D01*
X42619047Y-31609809D02*
X42928571Y-31609809D01*
X42928571Y-31609809D02*
X42761904Y-31800285D01*
X42761904Y-31800285D02*
X42833333Y-31800285D01*
X42833333Y-31800285D02*
X42880952Y-31824095D01*
X42880952Y-31824095D02*
X42904761Y-31847904D01*
X42904761Y-31847904D02*
X42928571Y-31895523D01*
X42928571Y-31895523D02*
X42928571Y-32014571D01*
X42928571Y-32014571D02*
X42904761Y-32062190D01*
X42904761Y-32062190D02*
X42880952Y-32086000D01*
X42880952Y-32086000D02*
X42833333Y-32109809D01*
X42833333Y-32109809D02*
X42690476Y-32109809D01*
X42690476Y-32109809D02*
X42642857Y-32086000D01*
X42642857Y-32086000D02*
X42619047Y-32062190D01*
X43071428Y-31609809D02*
X43238094Y-32109809D01*
X43238094Y-32109809D02*
X43404761Y-31609809D01*
X31553569Y-1882964D02*
X31696426Y-1882964D01*
X31696426Y-1882964D02*
X31767855Y-1918678D01*
X31767855Y-1918678D02*
X31839283Y-1990107D01*
X31839283Y-1990107D02*
X31874998Y-2132964D01*
X31874998Y-2132964D02*
X31874998Y-2382964D01*
X31874998Y-2382964D02*
X31839283Y-2525821D01*
X31839283Y-2525821D02*
X31767855Y-2597250D01*
X31767855Y-2597250D02*
X31696426Y-2632964D01*
X31696426Y-2632964D02*
X31553569Y-2632964D01*
X31553569Y-2632964D02*
X31482141Y-2597250D01*
X31482141Y-2597250D02*
X31410712Y-2525821D01*
X31410712Y-2525821D02*
X31374998Y-2382964D01*
X31374998Y-2382964D02*
X31374998Y-2132964D01*
X31374998Y-2132964D02*
X31410712Y-1990107D01*
X31410712Y-1990107D02*
X31482141Y-1918678D01*
X31482141Y-1918678D02*
X31553569Y-1882964D01*
X32553569Y-2632964D02*
X32196426Y-2632964D01*
X32196426Y-2632964D02*
X32196426Y-1882964D01*
X32803569Y-2240107D02*
X33053569Y-2240107D01*
X33160712Y-2632964D02*
X32803569Y-2632964D01*
X32803569Y-2632964D02*
X32803569Y-1882964D01*
X32803569Y-1882964D02*
X33160712Y-1882964D01*
X33482140Y-2632964D02*
X33482140Y-1882964D01*
X33482140Y-1882964D02*
X33660711Y-1882964D01*
X33660711Y-1882964D02*
X33767854Y-1918678D01*
X33767854Y-1918678D02*
X33839283Y-1990107D01*
X33839283Y-1990107D02*
X33874997Y-2061535D01*
X33874997Y-2061535D02*
X33910711Y-2204392D01*
X33910711Y-2204392D02*
X33910711Y-2311535D01*
X33910711Y-2311535D02*
X33874997Y-2454392D01*
X33874997Y-2454392D02*
X33839283Y-2525821D01*
X33839283Y-2525821D02*
X33767854Y-2597250D01*
X33767854Y-2597250D02*
X33660711Y-2632964D01*
X33660711Y-2632964D02*
X33482140Y-2632964D01*
X34767855Y-1954392D02*
X34803569Y-1918678D01*
X34803569Y-1918678D02*
X34874998Y-1882964D01*
X34874998Y-1882964D02*
X35053569Y-1882964D01*
X35053569Y-1882964D02*
X35124998Y-1918678D01*
X35124998Y-1918678D02*
X35160712Y-1954392D01*
X35160712Y-1954392D02*
X35196426Y-2025821D01*
X35196426Y-2025821D02*
X35196426Y-2097250D01*
X35196426Y-2097250D02*
X35160712Y-2204392D01*
X35160712Y-2204392D02*
X34732140Y-2632964D01*
X34732140Y-2632964D02*
X35196426Y-2632964D01*
X35517855Y-2561535D02*
X35553569Y-2597250D01*
X35553569Y-2597250D02*
X35517855Y-2632964D01*
X35517855Y-2632964D02*
X35482141Y-2597250D01*
X35482141Y-2597250D02*
X35517855Y-2561535D01*
X35517855Y-2561535D02*
X35517855Y-2632964D01*
X36196427Y-2132964D02*
X36196427Y-2632964D01*
X36017855Y-1847250D02*
X35839284Y-2382964D01*
X35839284Y-2382964D02*
X36303569Y-2382964D01*
X36553570Y-1954392D02*
X36589284Y-1918678D01*
X36589284Y-1918678D02*
X36660713Y-1882964D01*
X36660713Y-1882964D02*
X36839284Y-1882964D01*
X36839284Y-1882964D02*
X36910713Y-1918678D01*
X36910713Y-1918678D02*
X36946427Y-1954392D01*
X36946427Y-1954392D02*
X36982141Y-2025821D01*
X36982141Y-2025821D02*
X36982141Y-2097250D01*
X36982141Y-2097250D02*
X36946427Y-2204392D01*
X36946427Y-2204392D02*
X36517855Y-2632964D01*
X36517855Y-2632964D02*
X36982141Y-2632964D01*
X37267856Y-1882964D02*
X37267856Y-2025821D01*
X37553570Y-1882964D02*
X37553570Y-2025821D01*
X38446428Y-2632964D02*
X38446428Y-1882964D01*
X38767857Y-1954392D02*
X38803571Y-1918678D01*
X38803571Y-1918678D02*
X38875000Y-1882964D01*
X38875000Y-1882964D02*
X39053571Y-1882964D01*
X39053571Y-1882964D02*
X39125000Y-1918678D01*
X39125000Y-1918678D02*
X39160714Y-1954392D01*
X39160714Y-1954392D02*
X39196428Y-2025821D01*
X39196428Y-2025821D02*
X39196428Y-2097250D01*
X39196428Y-2097250D02*
X39160714Y-2204392D01*
X39160714Y-2204392D02*
X38732142Y-2632964D01*
X38732142Y-2632964D02*
X39196428Y-2632964D01*
X39946428Y-2561535D02*
X39910714Y-2597250D01*
X39910714Y-2597250D02*
X39803571Y-2632964D01*
X39803571Y-2632964D02*
X39732143Y-2632964D01*
X39732143Y-2632964D02*
X39625000Y-2597250D01*
X39625000Y-2597250D02*
X39553571Y-2525821D01*
X39553571Y-2525821D02*
X39517857Y-2454392D01*
X39517857Y-2454392D02*
X39482143Y-2311535D01*
X39482143Y-2311535D02*
X39482143Y-2204392D01*
X39482143Y-2204392D02*
X39517857Y-2061535D01*
X39517857Y-2061535D02*
X39553571Y-1990107D01*
X39553571Y-1990107D02*
X39625000Y-1918678D01*
X39625000Y-1918678D02*
X39732143Y-1882964D01*
X39732143Y-1882964D02*
X39803571Y-1882964D01*
X39803571Y-1882964D02*
X39910714Y-1918678D01*
X39910714Y-1918678D02*
X39946428Y-1954392D01*
X41375000Y-1847250D02*
X40732143Y-2811535D01*
X42160715Y-2597250D02*
X42267858Y-2632964D01*
X42267858Y-2632964D02*
X42446429Y-2632964D01*
X42446429Y-2632964D02*
X42517858Y-2597250D01*
X42517858Y-2597250D02*
X42553572Y-2561535D01*
X42553572Y-2561535D02*
X42589286Y-2490107D01*
X42589286Y-2490107D02*
X42589286Y-2418678D01*
X42589286Y-2418678D02*
X42553572Y-2347250D01*
X42553572Y-2347250D02*
X42517858Y-2311535D01*
X42517858Y-2311535D02*
X42446429Y-2275821D01*
X42446429Y-2275821D02*
X42303572Y-2240107D01*
X42303572Y-2240107D02*
X42232143Y-2204392D01*
X42232143Y-2204392D02*
X42196429Y-2168678D01*
X42196429Y-2168678D02*
X42160715Y-2097250D01*
X42160715Y-2097250D02*
X42160715Y-2025821D01*
X42160715Y-2025821D02*
X42196429Y-1954392D01*
X42196429Y-1954392D02*
X42232143Y-1918678D01*
X42232143Y-1918678D02*
X42303572Y-1882964D01*
X42303572Y-1882964D02*
X42482143Y-1882964D01*
X42482143Y-1882964D02*
X42589286Y-1918678D01*
X42910715Y-2632964D02*
X42910715Y-1882964D01*
X42910715Y-1882964D02*
X43196429Y-1882964D01*
X43196429Y-1882964D02*
X43267858Y-1918678D01*
X43267858Y-1918678D02*
X43303572Y-1954392D01*
X43303572Y-1954392D02*
X43339286Y-2025821D01*
X43339286Y-2025821D02*
X43339286Y-2132964D01*
X43339286Y-2132964D02*
X43303572Y-2204392D01*
X43303572Y-2204392D02*
X43267858Y-2240107D01*
X43267858Y-2240107D02*
X43196429Y-2275821D01*
X43196429Y-2275821D02*
X42910715Y-2275821D01*
X43660715Y-2632964D02*
X43660715Y-1882964D01*
X44553573Y-2597250D02*
X44660716Y-2632964D01*
X44660716Y-2632964D02*
X44839287Y-2632964D01*
X44839287Y-2632964D02*
X44910716Y-2597250D01*
X44910716Y-2597250D02*
X44946430Y-2561535D01*
X44946430Y-2561535D02*
X44982144Y-2490107D01*
X44982144Y-2490107D02*
X44982144Y-2418678D01*
X44982144Y-2418678D02*
X44946430Y-2347250D01*
X44946430Y-2347250D02*
X44910716Y-2311535D01*
X44910716Y-2311535D02*
X44839287Y-2275821D01*
X44839287Y-2275821D02*
X44696430Y-2240107D01*
X44696430Y-2240107D02*
X44625001Y-2204392D01*
X44625001Y-2204392D02*
X44589287Y-2168678D01*
X44589287Y-2168678D02*
X44553573Y-2097250D01*
X44553573Y-2097250D02*
X44553573Y-2025821D01*
X44553573Y-2025821D02*
X44589287Y-1954392D01*
X44589287Y-1954392D02*
X44625001Y-1918678D01*
X44625001Y-1918678D02*
X44696430Y-1882964D01*
X44696430Y-1882964D02*
X44875001Y-1882964D01*
X44875001Y-1882964D02*
X44982144Y-1918678D01*
X45303573Y-2240107D02*
X45553573Y-2240107D01*
X45660716Y-2632964D02*
X45303573Y-2632964D01*
X45303573Y-2632964D02*
X45303573Y-1882964D01*
X45303573Y-1882964D02*
X45660716Y-1882964D01*
X46339287Y-2632964D02*
X45982144Y-2632964D01*
X45982144Y-2632964D02*
X45982144Y-1882964D01*
X46589287Y-2240107D02*
X46839287Y-2240107D01*
X46946430Y-2632964D02*
X46589287Y-2632964D01*
X46589287Y-2632964D02*
X46589287Y-1882964D01*
X46589287Y-1882964D02*
X46946430Y-1882964D01*
X47696429Y-2561535D02*
X47660715Y-2597250D01*
X47660715Y-2597250D02*
X47553572Y-2632964D01*
X47553572Y-2632964D02*
X47482144Y-2632964D01*
X47482144Y-2632964D02*
X47375001Y-2597250D01*
X47375001Y-2597250D02*
X47303572Y-2525821D01*
X47303572Y-2525821D02*
X47267858Y-2454392D01*
X47267858Y-2454392D02*
X47232144Y-2311535D01*
X47232144Y-2311535D02*
X47232144Y-2204392D01*
X47232144Y-2204392D02*
X47267858Y-2061535D01*
X47267858Y-2061535D02*
X47303572Y-1990107D01*
X47303572Y-1990107D02*
X47375001Y-1918678D01*
X47375001Y-1918678D02*
X47482144Y-1882964D01*
X47482144Y-1882964D02*
X47553572Y-1882964D01*
X47553572Y-1882964D02*
X47660715Y-1918678D01*
X47660715Y-1918678D02*
X47696429Y-1954392D01*
X47910715Y-1882964D02*
X48339287Y-1882964D01*
X48125001Y-2632964D02*
X48125001Y-1882964D01*
X48732144Y-1882964D02*
X48875001Y-1882964D01*
X48875001Y-1882964D02*
X48946430Y-1918678D01*
X48946430Y-1918678D02*
X49017858Y-1990107D01*
X49017858Y-1990107D02*
X49053573Y-2132964D01*
X49053573Y-2132964D02*
X49053573Y-2382964D01*
X49053573Y-2382964D02*
X49017858Y-2525821D01*
X49017858Y-2525821D02*
X48946430Y-2597250D01*
X48946430Y-2597250D02*
X48875001Y-2632964D01*
X48875001Y-2632964D02*
X48732144Y-2632964D01*
X48732144Y-2632964D02*
X48660716Y-2597250D01*
X48660716Y-2597250D02*
X48589287Y-2525821D01*
X48589287Y-2525821D02*
X48553573Y-2382964D01*
X48553573Y-2382964D02*
X48553573Y-2132964D01*
X48553573Y-2132964D02*
X48589287Y-1990107D01*
X48589287Y-1990107D02*
X48660716Y-1918678D01*
X48660716Y-1918678D02*
X48732144Y-1882964D01*
X49803572Y-2632964D02*
X49553572Y-2275821D01*
X49375001Y-2632964D02*
X49375001Y-1882964D01*
X49375001Y-1882964D02*
X49660715Y-1882964D01*
X49660715Y-1882964D02*
X49732144Y-1918678D01*
X49732144Y-1918678D02*
X49767858Y-1954392D01*
X49767858Y-1954392D02*
X49803572Y-2025821D01*
X49803572Y-2025821D02*
X49803572Y-2132964D01*
X49803572Y-2132964D02*
X49767858Y-2204392D01*
X49767858Y-2204392D02*
X49732144Y-2240107D01*
X49732144Y-2240107D02*
X49660715Y-2275821D01*
X49660715Y-2275821D02*
X49375001Y-2275821D01*
X50696430Y-2632964D02*
X50696430Y-1882964D01*
X50696430Y-1882964D02*
X50982144Y-1882964D01*
X50982144Y-1882964D02*
X51053573Y-1918678D01*
X51053573Y-1918678D02*
X51089287Y-1954392D01*
X51089287Y-1954392D02*
X51125001Y-2025821D01*
X51125001Y-2025821D02*
X51125001Y-2132964D01*
X51125001Y-2132964D02*
X51089287Y-2204392D01*
X51089287Y-2204392D02*
X51053573Y-2240107D01*
X51053573Y-2240107D02*
X50982144Y-2275821D01*
X50982144Y-2275821D02*
X50696430Y-2275821D01*
X51875001Y-2561535D02*
X51839287Y-2597250D01*
X51839287Y-2597250D02*
X51732144Y-2632964D01*
X51732144Y-2632964D02*
X51660716Y-2632964D01*
X51660716Y-2632964D02*
X51553573Y-2597250D01*
X51553573Y-2597250D02*
X51482144Y-2525821D01*
X51482144Y-2525821D02*
X51446430Y-2454392D01*
X51446430Y-2454392D02*
X51410716Y-2311535D01*
X51410716Y-2311535D02*
X51410716Y-2204392D01*
X51410716Y-2204392D02*
X51446430Y-2061535D01*
X51446430Y-2061535D02*
X51482144Y-1990107D01*
X51482144Y-1990107D02*
X51553573Y-1918678D01*
X51553573Y-1918678D02*
X51660716Y-1882964D01*
X51660716Y-1882964D02*
X51732144Y-1882964D01*
X51732144Y-1882964D02*
X51839287Y-1918678D01*
X51839287Y-1918678D02*
X51875001Y-1954392D01*
X52446430Y-2240107D02*
X52553573Y-2275821D01*
X52553573Y-2275821D02*
X52589287Y-2311535D01*
X52589287Y-2311535D02*
X52625001Y-2382964D01*
X52625001Y-2382964D02*
X52625001Y-2490107D01*
X52625001Y-2490107D02*
X52589287Y-2561535D01*
X52589287Y-2561535D02*
X52553573Y-2597250D01*
X52553573Y-2597250D02*
X52482144Y-2632964D01*
X52482144Y-2632964D02*
X52196430Y-2632964D01*
X52196430Y-2632964D02*
X52196430Y-1882964D01*
X52196430Y-1882964D02*
X52446430Y-1882964D01*
X52446430Y-1882964D02*
X52517859Y-1918678D01*
X52517859Y-1918678D02*
X52553573Y-1954392D01*
X52553573Y-1954392D02*
X52589287Y-2025821D01*
X52589287Y-2025821D02*
X52589287Y-2097250D01*
X52589287Y-2097250D02*
X52553573Y-2168678D01*
X52553573Y-2168678D02*
X52517859Y-2204392D01*
X52517859Y-2204392D02*
X52446430Y-2240107D01*
X52446430Y-2240107D02*
X52196430Y-2240107D01*
X35232143Y-3840464D02*
X35232143Y-3090464D01*
X35232143Y-3090464D02*
X35660714Y-3840464D01*
X35660714Y-3840464D02*
X35660714Y-3090464D01*
X36125000Y-3840464D02*
X36053571Y-3804750D01*
X36053571Y-3804750D02*
X36017857Y-3769035D01*
X36017857Y-3769035D02*
X35982143Y-3697607D01*
X35982143Y-3697607D02*
X35982143Y-3483321D01*
X35982143Y-3483321D02*
X36017857Y-3411892D01*
X36017857Y-3411892D02*
X36053571Y-3376178D01*
X36053571Y-3376178D02*
X36125000Y-3340464D01*
X36125000Y-3340464D02*
X36232143Y-3340464D01*
X36232143Y-3340464D02*
X36303571Y-3376178D01*
X36303571Y-3376178D02*
X36339286Y-3411892D01*
X36339286Y-3411892D02*
X36375000Y-3483321D01*
X36375000Y-3483321D02*
X36375000Y-3697607D01*
X36375000Y-3697607D02*
X36339286Y-3769035D01*
X36339286Y-3769035D02*
X36303571Y-3804750D01*
X36303571Y-3804750D02*
X36232143Y-3840464D01*
X36232143Y-3840464D02*
X36125000Y-3840464D01*
X36696428Y-3840464D02*
X36696428Y-3340464D01*
X36696428Y-3483321D02*
X36732142Y-3411892D01*
X36732142Y-3411892D02*
X36767857Y-3376178D01*
X36767857Y-3376178D02*
X36839285Y-3340464D01*
X36839285Y-3340464D02*
X36910714Y-3340464D01*
X37160714Y-3840464D02*
X37160714Y-3340464D01*
X37160714Y-3411892D02*
X37196428Y-3376178D01*
X37196428Y-3376178D02*
X37267857Y-3340464D01*
X37267857Y-3340464D02*
X37375000Y-3340464D01*
X37375000Y-3340464D02*
X37446428Y-3376178D01*
X37446428Y-3376178D02*
X37482143Y-3447607D01*
X37482143Y-3447607D02*
X37482143Y-3840464D01*
X37482143Y-3447607D02*
X37517857Y-3376178D01*
X37517857Y-3376178D02*
X37589285Y-3340464D01*
X37589285Y-3340464D02*
X37696428Y-3340464D01*
X37696428Y-3340464D02*
X37767857Y-3376178D01*
X37767857Y-3376178D02*
X37803571Y-3447607D01*
X37803571Y-3447607D02*
X37803571Y-3840464D01*
X38482143Y-3840464D02*
X38482143Y-3447607D01*
X38482143Y-3447607D02*
X38446428Y-3376178D01*
X38446428Y-3376178D02*
X38375000Y-3340464D01*
X38375000Y-3340464D02*
X38232143Y-3340464D01*
X38232143Y-3340464D02*
X38160714Y-3376178D01*
X38482143Y-3804750D02*
X38410714Y-3840464D01*
X38410714Y-3840464D02*
X38232143Y-3840464D01*
X38232143Y-3840464D02*
X38160714Y-3804750D01*
X38160714Y-3804750D02*
X38125000Y-3733321D01*
X38125000Y-3733321D02*
X38125000Y-3661892D01*
X38125000Y-3661892D02*
X38160714Y-3590464D01*
X38160714Y-3590464D02*
X38232143Y-3554750D01*
X38232143Y-3554750D02*
X38410714Y-3554750D01*
X38410714Y-3554750D02*
X38482143Y-3519035D01*
X38839285Y-3340464D02*
X38839285Y-3840464D01*
X38839285Y-3411892D02*
X38874999Y-3376178D01*
X38874999Y-3376178D02*
X38946428Y-3340464D01*
X38946428Y-3340464D02*
X39053571Y-3340464D01*
X39053571Y-3340464D02*
X39124999Y-3376178D01*
X39124999Y-3376178D02*
X39160714Y-3447607D01*
X39160714Y-3447607D02*
X39160714Y-3840464D01*
X40517856Y-3769035D02*
X40482142Y-3804750D01*
X40482142Y-3804750D02*
X40374999Y-3840464D01*
X40374999Y-3840464D02*
X40303571Y-3840464D01*
X40303571Y-3840464D02*
X40196428Y-3804750D01*
X40196428Y-3804750D02*
X40124999Y-3733321D01*
X40124999Y-3733321D02*
X40089285Y-3661892D01*
X40089285Y-3661892D02*
X40053571Y-3519035D01*
X40053571Y-3519035D02*
X40053571Y-3411892D01*
X40053571Y-3411892D02*
X40089285Y-3269035D01*
X40089285Y-3269035D02*
X40124999Y-3197607D01*
X40124999Y-3197607D02*
X40196428Y-3126178D01*
X40196428Y-3126178D02*
X40303571Y-3090464D01*
X40303571Y-3090464D02*
X40374999Y-3090464D01*
X40374999Y-3090464D02*
X40482142Y-3126178D01*
X40482142Y-3126178D02*
X40517856Y-3161892D01*
X40946428Y-3840464D02*
X40874999Y-3804750D01*
X40874999Y-3804750D02*
X40839285Y-3733321D01*
X40839285Y-3733321D02*
X40839285Y-3090464D01*
X41517856Y-3804750D02*
X41446428Y-3840464D01*
X41446428Y-3840464D02*
X41303571Y-3840464D01*
X41303571Y-3840464D02*
X41232142Y-3804750D01*
X41232142Y-3804750D02*
X41196428Y-3733321D01*
X41196428Y-3733321D02*
X41196428Y-3447607D01*
X41196428Y-3447607D02*
X41232142Y-3376178D01*
X41232142Y-3376178D02*
X41303571Y-3340464D01*
X41303571Y-3340464D02*
X41446428Y-3340464D01*
X41446428Y-3340464D02*
X41517856Y-3376178D01*
X41517856Y-3376178D02*
X41553571Y-3447607D01*
X41553571Y-3447607D02*
X41553571Y-3519035D01*
X41553571Y-3519035D02*
X41196428Y-3590464D01*
X42160713Y-3804750D02*
X42089285Y-3840464D01*
X42089285Y-3840464D02*
X41946428Y-3840464D01*
X41946428Y-3840464D02*
X41874999Y-3804750D01*
X41874999Y-3804750D02*
X41839285Y-3733321D01*
X41839285Y-3733321D02*
X41839285Y-3447607D01*
X41839285Y-3447607D02*
X41874999Y-3376178D01*
X41874999Y-3376178D02*
X41946428Y-3340464D01*
X41946428Y-3340464D02*
X42089285Y-3340464D01*
X42089285Y-3340464D02*
X42160713Y-3376178D01*
X42160713Y-3376178D02*
X42196428Y-3447607D01*
X42196428Y-3447607D02*
X42196428Y-3519035D01*
X42196428Y-3519035D02*
X41839285Y-3590464D01*
X42482142Y-3804750D02*
X42553570Y-3840464D01*
X42553570Y-3840464D02*
X42696427Y-3840464D01*
X42696427Y-3840464D02*
X42767856Y-3804750D01*
X42767856Y-3804750D02*
X42803570Y-3733321D01*
X42803570Y-3733321D02*
X42803570Y-3697607D01*
X42803570Y-3697607D02*
X42767856Y-3626178D01*
X42767856Y-3626178D02*
X42696427Y-3590464D01*
X42696427Y-3590464D02*
X42589285Y-3590464D01*
X42589285Y-3590464D02*
X42517856Y-3554750D01*
X42517856Y-3554750D02*
X42482142Y-3483321D01*
X42482142Y-3483321D02*
X42482142Y-3447607D01*
X42482142Y-3447607D02*
X42517856Y-3376178D01*
X42517856Y-3376178D02*
X42589285Y-3340464D01*
X42589285Y-3340464D02*
X42696427Y-3340464D01*
X42696427Y-3340464D02*
X42767856Y-3376178D01*
X43446428Y-3840464D02*
X43446428Y-3447607D01*
X43446428Y-3447607D02*
X43410713Y-3376178D01*
X43410713Y-3376178D02*
X43339285Y-3340464D01*
X43339285Y-3340464D02*
X43196428Y-3340464D01*
X43196428Y-3340464D02*
X43124999Y-3376178D01*
X43446428Y-3804750D02*
X43374999Y-3840464D01*
X43374999Y-3840464D02*
X43196428Y-3840464D01*
X43196428Y-3840464D02*
X43124999Y-3804750D01*
X43124999Y-3804750D02*
X43089285Y-3733321D01*
X43089285Y-3733321D02*
X43089285Y-3661892D01*
X43089285Y-3661892D02*
X43124999Y-3590464D01*
X43124999Y-3590464D02*
X43196428Y-3554750D01*
X43196428Y-3554750D02*
X43374999Y-3554750D01*
X43374999Y-3554750D02*
X43446428Y-3519035D01*
X43696427Y-3340464D02*
X43982141Y-3340464D01*
X43803570Y-3090464D02*
X43803570Y-3733321D01*
X43803570Y-3733321D02*
X43839284Y-3804750D01*
X43839284Y-3804750D02*
X43910713Y-3840464D01*
X43910713Y-3840464D02*
X43982141Y-3840464D01*
X44124998Y-3340464D02*
X44410712Y-3340464D01*
X44232141Y-3090464D02*
X44232141Y-3733321D01*
X44232141Y-3733321D02*
X44267855Y-3804750D01*
X44267855Y-3804750D02*
X44339284Y-3840464D01*
X44339284Y-3840464D02*
X44410712Y-3840464D01*
X44946426Y-3804750D02*
X44874998Y-3840464D01*
X44874998Y-3840464D02*
X44732141Y-3840464D01*
X44732141Y-3840464D02*
X44660712Y-3804750D01*
X44660712Y-3804750D02*
X44624998Y-3733321D01*
X44624998Y-3733321D02*
X44624998Y-3447607D01*
X44624998Y-3447607D02*
X44660712Y-3376178D01*
X44660712Y-3376178D02*
X44732141Y-3340464D01*
X44732141Y-3340464D02*
X44874998Y-3340464D01*
X44874998Y-3340464D02*
X44946426Y-3376178D01*
X44946426Y-3376178D02*
X44982141Y-3447607D01*
X44982141Y-3447607D02*
X44982141Y-3519035D01*
X44982141Y-3519035D02*
X44624998Y-3590464D01*
X45410712Y-3840464D02*
X45339283Y-3804750D01*
X45339283Y-3804750D02*
X45303569Y-3733321D01*
X45303569Y-3733321D02*
X45303569Y-3090464D01*
X46232141Y-3161892D02*
X46267855Y-3126178D01*
X46267855Y-3126178D02*
X46339284Y-3090464D01*
X46339284Y-3090464D02*
X46517855Y-3090464D01*
X46517855Y-3090464D02*
X46589284Y-3126178D01*
X46589284Y-3126178D02*
X46624998Y-3161892D01*
X46624998Y-3161892D02*
X46660712Y-3233321D01*
X46660712Y-3233321D02*
X46660712Y-3304750D01*
X46660712Y-3304750D02*
X46624998Y-3411892D01*
X46624998Y-3411892D02*
X46196426Y-3840464D01*
X46196426Y-3840464D02*
X46660712Y-3840464D01*
X47124998Y-3090464D02*
X47196427Y-3090464D01*
X47196427Y-3090464D02*
X47267855Y-3126178D01*
X47267855Y-3126178D02*
X47303570Y-3161892D01*
X47303570Y-3161892D02*
X47339284Y-3233321D01*
X47339284Y-3233321D02*
X47374998Y-3376178D01*
X47374998Y-3376178D02*
X47374998Y-3554750D01*
X47374998Y-3554750D02*
X47339284Y-3697607D01*
X47339284Y-3697607D02*
X47303570Y-3769035D01*
X47303570Y-3769035D02*
X47267855Y-3804750D01*
X47267855Y-3804750D02*
X47196427Y-3840464D01*
X47196427Y-3840464D02*
X47124998Y-3840464D01*
X47124998Y-3840464D02*
X47053570Y-3804750D01*
X47053570Y-3804750D02*
X47017855Y-3769035D01*
X47017855Y-3769035D02*
X46982141Y-3697607D01*
X46982141Y-3697607D02*
X46946427Y-3554750D01*
X46946427Y-3554750D02*
X46946427Y-3376178D01*
X46946427Y-3376178D02*
X46982141Y-3233321D01*
X46982141Y-3233321D02*
X47017855Y-3161892D01*
X47017855Y-3161892D02*
X47053570Y-3126178D01*
X47053570Y-3126178D02*
X47124998Y-3090464D01*
X47660713Y-3161892D02*
X47696427Y-3126178D01*
X47696427Y-3126178D02*
X47767856Y-3090464D01*
X47767856Y-3090464D02*
X47946427Y-3090464D01*
X47946427Y-3090464D02*
X48017856Y-3126178D01*
X48017856Y-3126178D02*
X48053570Y-3161892D01*
X48053570Y-3161892D02*
X48089284Y-3233321D01*
X48089284Y-3233321D02*
X48089284Y-3304750D01*
X48089284Y-3304750D02*
X48053570Y-3411892D01*
X48053570Y-3411892D02*
X47624998Y-3840464D01*
X47624998Y-3840464D02*
X48089284Y-3840464D01*
X48339284Y-3090464D02*
X48803570Y-3090464D01*
X48803570Y-3090464D02*
X48553570Y-3376178D01*
X48553570Y-3376178D02*
X48660713Y-3376178D01*
X48660713Y-3376178D02*
X48732142Y-3411892D01*
X48732142Y-3411892D02*
X48767856Y-3447607D01*
X48767856Y-3447607D02*
X48803570Y-3519035D01*
X48803570Y-3519035D02*
X48803570Y-3697607D01*
X48803570Y-3697607D02*
X48767856Y-3769035D01*
X48767856Y-3769035D02*
X48732142Y-3804750D01*
X48732142Y-3804750D02*
X48660713Y-3840464D01*
X48660713Y-3840464D02*
X48446427Y-3840464D01*
X48446427Y-3840464D02*
X48374999Y-3804750D01*
X48374999Y-3804750D02*
X48339284Y-3769035D01*
X37196428Y-5047964D02*
X37196428Y-4297964D01*
X37196428Y-4297964D02*
X37482142Y-4297964D01*
X37482142Y-4297964D02*
X37553571Y-4333678D01*
X37553571Y-4333678D02*
X37589285Y-4369392D01*
X37589285Y-4369392D02*
X37624999Y-4440821D01*
X37624999Y-4440821D02*
X37624999Y-4547964D01*
X37624999Y-4547964D02*
X37589285Y-4619392D01*
X37589285Y-4619392D02*
X37553571Y-4655107D01*
X37553571Y-4655107D02*
X37482142Y-4690821D01*
X37482142Y-4690821D02*
X37196428Y-4690821D01*
X38374999Y-4976535D02*
X38339285Y-5012250D01*
X38339285Y-5012250D02*
X38232142Y-5047964D01*
X38232142Y-5047964D02*
X38160714Y-5047964D01*
X38160714Y-5047964D02*
X38053571Y-5012250D01*
X38053571Y-5012250D02*
X37982142Y-4940821D01*
X37982142Y-4940821D02*
X37946428Y-4869392D01*
X37946428Y-4869392D02*
X37910714Y-4726535D01*
X37910714Y-4726535D02*
X37910714Y-4619392D01*
X37910714Y-4619392D02*
X37946428Y-4476535D01*
X37946428Y-4476535D02*
X37982142Y-4405107D01*
X37982142Y-4405107D02*
X38053571Y-4333678D01*
X38053571Y-4333678D02*
X38160714Y-4297964D01*
X38160714Y-4297964D02*
X38232142Y-4297964D01*
X38232142Y-4297964D02*
X38339285Y-4333678D01*
X38339285Y-4333678D02*
X38374999Y-4369392D01*
X38946428Y-4655107D02*
X39053571Y-4690821D01*
X39053571Y-4690821D02*
X39089285Y-4726535D01*
X39089285Y-4726535D02*
X39124999Y-4797964D01*
X39124999Y-4797964D02*
X39124999Y-4905107D01*
X39124999Y-4905107D02*
X39089285Y-4976535D01*
X39089285Y-4976535D02*
X39053571Y-5012250D01*
X39053571Y-5012250D02*
X38982142Y-5047964D01*
X38982142Y-5047964D02*
X38696428Y-5047964D01*
X38696428Y-5047964D02*
X38696428Y-4297964D01*
X38696428Y-4297964D02*
X38946428Y-4297964D01*
X38946428Y-4297964D02*
X39017857Y-4333678D01*
X39017857Y-4333678D02*
X39053571Y-4369392D01*
X39053571Y-4369392D02*
X39089285Y-4440821D01*
X39089285Y-4440821D02*
X39089285Y-4512250D01*
X39089285Y-4512250D02*
X39053571Y-4583678D01*
X39053571Y-4583678D02*
X39017857Y-4619392D01*
X39017857Y-4619392D02*
X38946428Y-4655107D01*
X38946428Y-4655107D02*
X38696428Y-4655107D01*
X39910714Y-4297964D02*
X40160714Y-5047964D01*
X40160714Y-5047964D02*
X40410714Y-4297964D01*
X40946428Y-5012250D02*
X40875000Y-5047964D01*
X40875000Y-5047964D02*
X40732143Y-5047964D01*
X40732143Y-5047964D02*
X40660714Y-5012250D01*
X40660714Y-5012250D02*
X40625000Y-4940821D01*
X40625000Y-4940821D02*
X40625000Y-4655107D01*
X40625000Y-4655107D02*
X40660714Y-4583678D01*
X40660714Y-4583678D02*
X40732143Y-4547964D01*
X40732143Y-4547964D02*
X40875000Y-4547964D01*
X40875000Y-4547964D02*
X40946428Y-4583678D01*
X40946428Y-4583678D02*
X40982143Y-4655107D01*
X40982143Y-4655107D02*
X40982143Y-4726535D01*
X40982143Y-4726535D02*
X40625000Y-4797964D01*
X41303571Y-5047964D02*
X41303571Y-4547964D01*
X41303571Y-4690821D02*
X41339285Y-4619392D01*
X41339285Y-4619392D02*
X41375000Y-4583678D01*
X41375000Y-4583678D02*
X41446428Y-4547964D01*
X41446428Y-4547964D02*
X41517857Y-4547964D01*
X41732143Y-5012250D02*
X41803571Y-5047964D01*
X41803571Y-5047964D02*
X41946428Y-5047964D01*
X41946428Y-5047964D02*
X42017857Y-5012250D01*
X42017857Y-5012250D02*
X42053571Y-4940821D01*
X42053571Y-4940821D02*
X42053571Y-4905107D01*
X42053571Y-4905107D02*
X42017857Y-4833678D01*
X42017857Y-4833678D02*
X41946428Y-4797964D01*
X41946428Y-4797964D02*
X41839286Y-4797964D01*
X41839286Y-4797964D02*
X41767857Y-4762250D01*
X41767857Y-4762250D02*
X41732143Y-4690821D01*
X41732143Y-4690821D02*
X41732143Y-4655107D01*
X41732143Y-4655107D02*
X41767857Y-4583678D01*
X41767857Y-4583678D02*
X41839286Y-4547964D01*
X41839286Y-4547964D02*
X41946428Y-4547964D01*
X41946428Y-4547964D02*
X42017857Y-4583678D01*
X42375000Y-5047964D02*
X42375000Y-4547964D01*
X42375000Y-4297964D02*
X42339286Y-4333678D01*
X42339286Y-4333678D02*
X42375000Y-4369392D01*
X42375000Y-4369392D02*
X42410714Y-4333678D01*
X42410714Y-4333678D02*
X42375000Y-4297964D01*
X42375000Y-4297964D02*
X42375000Y-4369392D01*
X42839286Y-5047964D02*
X42767857Y-5012250D01*
X42767857Y-5012250D02*
X42732143Y-4976535D01*
X42732143Y-4976535D02*
X42696429Y-4905107D01*
X42696429Y-4905107D02*
X42696429Y-4690821D01*
X42696429Y-4690821D02*
X42732143Y-4619392D01*
X42732143Y-4619392D02*
X42767857Y-4583678D01*
X42767857Y-4583678D02*
X42839286Y-4547964D01*
X42839286Y-4547964D02*
X42946429Y-4547964D01*
X42946429Y-4547964D02*
X43017857Y-4583678D01*
X43017857Y-4583678D02*
X43053572Y-4619392D01*
X43053572Y-4619392D02*
X43089286Y-4690821D01*
X43089286Y-4690821D02*
X43089286Y-4905107D01*
X43089286Y-4905107D02*
X43053572Y-4976535D01*
X43053572Y-4976535D02*
X43017857Y-5012250D01*
X43017857Y-5012250D02*
X42946429Y-5047964D01*
X42946429Y-5047964D02*
X42839286Y-5047964D01*
X43410714Y-4547964D02*
X43410714Y-5047964D01*
X43410714Y-4619392D02*
X43446428Y-4583678D01*
X43446428Y-4583678D02*
X43517857Y-4547964D01*
X43517857Y-4547964D02*
X43625000Y-4547964D01*
X43625000Y-4547964D02*
X43696428Y-4583678D01*
X43696428Y-4583678D02*
X43732143Y-4655107D01*
X43732143Y-4655107D02*
X43732143Y-5047964D01*
X45053571Y-5047964D02*
X44625000Y-5047964D01*
X44839285Y-5047964D02*
X44839285Y-4297964D01*
X44839285Y-4297964D02*
X44767857Y-4405107D01*
X44767857Y-4405107D02*
X44696428Y-4476535D01*
X44696428Y-4476535D02*
X44625000Y-4512250D01*
X45375000Y-4976535D02*
X45410714Y-5012250D01*
X45410714Y-5012250D02*
X45375000Y-5047964D01*
X45375000Y-5047964D02*
X45339286Y-5012250D01*
X45339286Y-5012250D02*
X45375000Y-4976535D01*
X45375000Y-4976535D02*
X45375000Y-5047964D01*
X45660714Y-4297964D02*
X46125000Y-4297964D01*
X46125000Y-4297964D02*
X45875000Y-4583678D01*
X45875000Y-4583678D02*
X45982143Y-4583678D01*
X45982143Y-4583678D02*
X46053572Y-4619392D01*
X46053572Y-4619392D02*
X46089286Y-4655107D01*
X46089286Y-4655107D02*
X46125000Y-4726535D01*
X46125000Y-4726535D02*
X46125000Y-4905107D01*
X46125000Y-4905107D02*
X46089286Y-4976535D01*
X46089286Y-4976535D02*
X46053572Y-5012250D01*
X46053572Y-5012250D02*
X45982143Y-5047964D01*
X45982143Y-5047964D02*
X45767857Y-5047964D01*
X45767857Y-5047964D02*
X45696429Y-5012250D01*
X45696429Y-5012250D02*
X45660714Y-4976535D01*
X46839286Y-5047964D02*
X46410715Y-5047964D01*
X46625000Y-5047964D02*
X46625000Y-4297964D01*
X46625000Y-4297964D02*
X46553572Y-4405107D01*
X46553572Y-4405107D02*
X46482143Y-4476535D01*
X46482143Y-4476535D02*
X46410715Y-4512250D01*
X38714286Y-34526476D02*
X38714286Y-34859809D01*
X38595238Y-34336000D02*
X38476191Y-34693142D01*
X38476191Y-34693142D02*
X38785714Y-34693142D01*
X38976190Y-34669333D02*
X39357143Y-34669333D01*
X39547619Y-34359809D02*
X39666667Y-34859809D01*
X39666667Y-34859809D02*
X39761905Y-34502666D01*
X39761905Y-34502666D02*
X39857143Y-34859809D01*
X39857143Y-34859809D02*
X39976191Y-34359809D01*
X40166667Y-34859809D02*
X40166667Y-34526476D01*
X40166667Y-34359809D02*
X40142858Y-34383619D01*
X40142858Y-34383619D02*
X40166667Y-34407428D01*
X40166667Y-34407428D02*
X40190477Y-34383619D01*
X40190477Y-34383619D02*
X40166667Y-34359809D01*
X40166667Y-34359809D02*
X40166667Y-34407428D01*
X40404762Y-34859809D02*
X40404762Y-34526476D01*
X40404762Y-34621714D02*
X40428572Y-34574095D01*
X40428572Y-34574095D02*
X40452381Y-34550285D01*
X40452381Y-34550285D02*
X40500000Y-34526476D01*
X40500000Y-34526476D02*
X40547619Y-34526476D01*
X40904762Y-34836000D02*
X40857143Y-34859809D01*
X40857143Y-34859809D02*
X40761905Y-34859809D01*
X40761905Y-34859809D02*
X40714286Y-34836000D01*
X40714286Y-34836000D02*
X40690477Y-34788380D01*
X40690477Y-34788380D02*
X40690477Y-34597904D01*
X40690477Y-34597904D02*
X40714286Y-34550285D01*
X40714286Y-34550285D02*
X40761905Y-34526476D01*
X40761905Y-34526476D02*
X40857143Y-34526476D01*
X40857143Y-34526476D02*
X40904762Y-34550285D01*
X40904762Y-34550285D02*
X40928572Y-34597904D01*
X40928572Y-34597904D02*
X40928572Y-34645523D01*
X40928572Y-34645523D02*
X40690477Y-34693142D01*
X41500000Y-34836000D02*
X41571428Y-34859809D01*
X41571428Y-34859809D02*
X41690476Y-34859809D01*
X41690476Y-34859809D02*
X41738095Y-34836000D01*
X41738095Y-34836000D02*
X41761904Y-34812190D01*
X41761904Y-34812190D02*
X41785714Y-34764571D01*
X41785714Y-34764571D02*
X41785714Y-34716952D01*
X41785714Y-34716952D02*
X41761904Y-34669333D01*
X41761904Y-34669333D02*
X41738095Y-34645523D01*
X41738095Y-34645523D02*
X41690476Y-34621714D01*
X41690476Y-34621714D02*
X41595238Y-34597904D01*
X41595238Y-34597904D02*
X41547619Y-34574095D01*
X41547619Y-34574095D02*
X41523809Y-34550285D01*
X41523809Y-34550285D02*
X41500000Y-34502666D01*
X41500000Y-34502666D02*
X41500000Y-34455047D01*
X41500000Y-34455047D02*
X41523809Y-34407428D01*
X41523809Y-34407428D02*
X41547619Y-34383619D01*
X41547619Y-34383619D02*
X41595238Y-34359809D01*
X41595238Y-34359809D02*
X41714285Y-34359809D01*
X41714285Y-34359809D02*
X41785714Y-34383619D01*
X41999999Y-34859809D02*
X41999999Y-34359809D01*
X41999999Y-34359809D02*
X42190475Y-34359809D01*
X42190475Y-34359809D02*
X42238094Y-34383619D01*
X42238094Y-34383619D02*
X42261904Y-34407428D01*
X42261904Y-34407428D02*
X42285713Y-34455047D01*
X42285713Y-34455047D02*
X42285713Y-34526476D01*
X42285713Y-34526476D02*
X42261904Y-34574095D01*
X42261904Y-34574095D02*
X42238094Y-34597904D01*
X42238094Y-34597904D02*
X42190475Y-34621714D01*
X42190475Y-34621714D02*
X41999999Y-34621714D01*
X42499999Y-34859809D02*
X42499999Y-34359809D01*
X53316071Y-28774809D02*
X53149405Y-28536714D01*
X53030357Y-28774809D02*
X53030357Y-28274809D01*
X53030357Y-28274809D02*
X53220833Y-28274809D01*
X53220833Y-28274809D02*
X53268452Y-28298619D01*
X53268452Y-28298619D02*
X53292262Y-28322428D01*
X53292262Y-28322428D02*
X53316071Y-28370047D01*
X53316071Y-28370047D02*
X53316071Y-28441476D01*
X53316071Y-28441476D02*
X53292262Y-28489095D01*
X53292262Y-28489095D02*
X53268452Y-28512904D01*
X53268452Y-28512904D02*
X53220833Y-28536714D01*
X53220833Y-28536714D02*
X53030357Y-28536714D01*
X53792262Y-28774809D02*
X53506548Y-28774809D01*
X53649405Y-28774809D02*
X53649405Y-28274809D01*
X53649405Y-28274809D02*
X53601786Y-28346238D01*
X53601786Y-28346238D02*
X53554167Y-28393857D01*
X53554167Y-28393857D02*
X53506548Y-28417666D01*
X54101785Y-28274809D02*
X54149404Y-28274809D01*
X54149404Y-28274809D02*
X54197023Y-28298619D01*
X54197023Y-28298619D02*
X54220833Y-28322428D01*
X54220833Y-28322428D02*
X54244642Y-28370047D01*
X54244642Y-28370047D02*
X54268452Y-28465285D01*
X54268452Y-28465285D02*
X54268452Y-28584333D01*
X54268452Y-28584333D02*
X54244642Y-28679571D01*
X54244642Y-28679571D02*
X54220833Y-28727190D01*
X54220833Y-28727190D02*
X54197023Y-28751000D01*
X54197023Y-28751000D02*
X54149404Y-28774809D01*
X54149404Y-28774809D02*
X54101785Y-28774809D01*
X54101785Y-28774809D02*
X54054166Y-28751000D01*
X54054166Y-28751000D02*
X54030357Y-28727190D01*
X54030357Y-28727190D02*
X54006547Y-28679571D01*
X54006547Y-28679571D02*
X53982738Y-28584333D01*
X53982738Y-28584333D02*
X53982738Y-28465285D01*
X53982738Y-28465285D02*
X54006547Y-28370047D01*
X54006547Y-28370047D02*
X54030357Y-28322428D01*
X54030357Y-28322428D02*
X54054166Y-28298619D01*
X54054166Y-28298619D02*
X54101785Y-28274809D01*
X55316071Y-35227190D02*
X55292262Y-35251000D01*
X55292262Y-35251000D02*
X55220833Y-35274809D01*
X55220833Y-35274809D02*
X55173214Y-35274809D01*
X55173214Y-35274809D02*
X55101786Y-35251000D01*
X55101786Y-35251000D02*
X55054167Y-35203380D01*
X55054167Y-35203380D02*
X55030357Y-35155761D01*
X55030357Y-35155761D02*
X55006548Y-35060523D01*
X55006548Y-35060523D02*
X55006548Y-34989095D01*
X55006548Y-34989095D02*
X55030357Y-34893857D01*
X55030357Y-34893857D02*
X55054167Y-34846238D01*
X55054167Y-34846238D02*
X55101786Y-34798619D01*
X55101786Y-34798619D02*
X55173214Y-34774809D01*
X55173214Y-34774809D02*
X55220833Y-34774809D01*
X55220833Y-34774809D02*
X55292262Y-34798619D01*
X55292262Y-34798619D02*
X55316071Y-34822428D01*
X55792262Y-35274809D02*
X55506548Y-35274809D01*
X55649405Y-35274809D02*
X55649405Y-34774809D01*
X55649405Y-34774809D02*
X55601786Y-34846238D01*
X55601786Y-34846238D02*
X55554167Y-34893857D01*
X55554167Y-34893857D02*
X55506548Y-34917666D01*
X56101785Y-34774809D02*
X56149404Y-34774809D01*
X56149404Y-34774809D02*
X56197023Y-34798619D01*
X56197023Y-34798619D02*
X56220833Y-34822428D01*
X56220833Y-34822428D02*
X56244642Y-34870047D01*
X56244642Y-34870047D02*
X56268452Y-34965285D01*
X56268452Y-34965285D02*
X56268452Y-35084333D01*
X56268452Y-35084333D02*
X56244642Y-35179571D01*
X56244642Y-35179571D02*
X56220833Y-35227190D01*
X56220833Y-35227190D02*
X56197023Y-35251000D01*
X56197023Y-35251000D02*
X56149404Y-35274809D01*
X56149404Y-35274809D02*
X56101785Y-35274809D01*
X56101785Y-35274809D02*
X56054166Y-35251000D01*
X56054166Y-35251000D02*
X56030357Y-35227190D01*
X56030357Y-35227190D02*
X56006547Y-35179571D01*
X56006547Y-35179571D02*
X55982738Y-35084333D01*
X55982738Y-35084333D02*
X55982738Y-34965285D01*
X55982738Y-34965285D02*
X56006547Y-34870047D01*
X56006547Y-34870047D02*
X56030357Y-34822428D01*
X56030357Y-34822428D02*
X56054166Y-34798619D01*
X56054166Y-34798619D02*
X56101785Y-34774809D01*
X61869048Y-5724809D02*
X62154762Y-5724809D01*
X62011905Y-6224809D02*
X62011905Y-5724809D01*
X62321428Y-6224809D02*
X62321428Y-5724809D01*
X62321428Y-5724809D02*
X62511904Y-5724809D01*
X62511904Y-5724809D02*
X62559523Y-5748619D01*
X62559523Y-5748619D02*
X62583333Y-5772428D01*
X62583333Y-5772428D02*
X62607142Y-5820047D01*
X62607142Y-5820047D02*
X62607142Y-5891476D01*
X62607142Y-5891476D02*
X62583333Y-5939095D01*
X62583333Y-5939095D02*
X62559523Y-5962904D01*
X62559523Y-5962904D02*
X62511904Y-5986714D01*
X62511904Y-5986714D02*
X62321428Y-5986714D01*
X62797619Y-5772428D02*
X62821428Y-5748619D01*
X62821428Y-5748619D02*
X62869047Y-5724809D01*
X62869047Y-5724809D02*
X62988095Y-5724809D01*
X62988095Y-5724809D02*
X63035714Y-5748619D01*
X63035714Y-5748619D02*
X63059523Y-5772428D01*
X63059523Y-5772428D02*
X63083333Y-5820047D01*
X63083333Y-5820047D02*
X63083333Y-5867666D01*
X63083333Y-5867666D02*
X63059523Y-5939095D01*
X63059523Y-5939095D02*
X62773809Y-6224809D01*
X62773809Y-6224809D02*
X63083333Y-6224809D01*
X50416666Y-19677190D02*
X50392857Y-19701000D01*
X50392857Y-19701000D02*
X50321428Y-19724809D01*
X50321428Y-19724809D02*
X50273809Y-19724809D01*
X50273809Y-19724809D02*
X50202381Y-19701000D01*
X50202381Y-19701000D02*
X50154762Y-19653380D01*
X50154762Y-19653380D02*
X50130952Y-19605761D01*
X50130952Y-19605761D02*
X50107143Y-19510523D01*
X50107143Y-19510523D02*
X50107143Y-19439095D01*
X50107143Y-19439095D02*
X50130952Y-19343857D01*
X50130952Y-19343857D02*
X50154762Y-19296238D01*
X50154762Y-19296238D02*
X50202381Y-19248619D01*
X50202381Y-19248619D02*
X50273809Y-19224809D01*
X50273809Y-19224809D02*
X50321428Y-19224809D01*
X50321428Y-19224809D02*
X50392857Y-19248619D01*
X50392857Y-19248619D02*
X50416666Y-19272428D01*
X50869047Y-19224809D02*
X50630952Y-19224809D01*
X50630952Y-19224809D02*
X50607143Y-19462904D01*
X50607143Y-19462904D02*
X50630952Y-19439095D01*
X50630952Y-19439095D02*
X50678571Y-19415285D01*
X50678571Y-19415285D02*
X50797619Y-19415285D01*
X50797619Y-19415285D02*
X50845238Y-19439095D01*
X50845238Y-19439095D02*
X50869047Y-19462904D01*
X50869047Y-19462904D02*
X50892857Y-19510523D01*
X50892857Y-19510523D02*
X50892857Y-19629571D01*
X50892857Y-19629571D02*
X50869047Y-19677190D01*
X50869047Y-19677190D02*
X50845238Y-19701000D01*
X50845238Y-19701000D02*
X50797619Y-19724809D01*
X50797619Y-19724809D02*
X50678571Y-19724809D01*
X50678571Y-19724809D02*
X50630952Y-19701000D01*
X50630952Y-19701000D02*
X50607143Y-19677190D01*
X66928571Y-39587190D02*
X66904762Y-39611000D01*
X66904762Y-39611000D02*
X66833333Y-39634809D01*
X66833333Y-39634809D02*
X66785714Y-39634809D01*
X66785714Y-39634809D02*
X66714286Y-39611000D01*
X66714286Y-39611000D02*
X66666667Y-39563380D01*
X66666667Y-39563380D02*
X66642857Y-39515761D01*
X66642857Y-39515761D02*
X66619048Y-39420523D01*
X66619048Y-39420523D02*
X66619048Y-39349095D01*
X66619048Y-39349095D02*
X66642857Y-39253857D01*
X66642857Y-39253857D02*
X66666667Y-39206238D01*
X66666667Y-39206238D02*
X66714286Y-39158619D01*
X66714286Y-39158619D02*
X66785714Y-39134809D01*
X66785714Y-39134809D02*
X66833333Y-39134809D01*
X66833333Y-39134809D02*
X66904762Y-39158619D01*
X66904762Y-39158619D02*
X66928571Y-39182428D01*
X67404762Y-39634809D02*
X67119048Y-39634809D01*
X67261905Y-39634809D02*
X67261905Y-39134809D01*
X67261905Y-39134809D02*
X67214286Y-39206238D01*
X67214286Y-39206238D02*
X67166667Y-39253857D01*
X67166667Y-39253857D02*
X67119048Y-39277666D01*
X67880952Y-39634809D02*
X67595238Y-39634809D01*
X67738095Y-39634809D02*
X67738095Y-39134809D01*
X67738095Y-39134809D02*
X67690476Y-39206238D01*
X67690476Y-39206238D02*
X67642857Y-39253857D01*
X67642857Y-39253857D02*
X67595238Y-39277666D01*
X26916666Y-6627190D02*
X26892857Y-6651000D01*
X26892857Y-6651000D02*
X26821428Y-6674809D01*
X26821428Y-6674809D02*
X26773809Y-6674809D01*
X26773809Y-6674809D02*
X26702381Y-6651000D01*
X26702381Y-6651000D02*
X26654762Y-6603380D01*
X26654762Y-6603380D02*
X26630952Y-6555761D01*
X26630952Y-6555761D02*
X26607143Y-6460523D01*
X26607143Y-6460523D02*
X26607143Y-6389095D01*
X26607143Y-6389095D02*
X26630952Y-6293857D01*
X26630952Y-6293857D02*
X26654762Y-6246238D01*
X26654762Y-6246238D02*
X26702381Y-6198619D01*
X26702381Y-6198619D02*
X26773809Y-6174809D01*
X26773809Y-6174809D02*
X26821428Y-6174809D01*
X26821428Y-6174809D02*
X26892857Y-6198619D01*
X26892857Y-6198619D02*
X26916666Y-6222428D01*
X27083333Y-6174809D02*
X27392857Y-6174809D01*
X27392857Y-6174809D02*
X27226190Y-6365285D01*
X27226190Y-6365285D02*
X27297619Y-6365285D01*
X27297619Y-6365285D02*
X27345238Y-6389095D01*
X27345238Y-6389095D02*
X27369047Y-6412904D01*
X27369047Y-6412904D02*
X27392857Y-6460523D01*
X27392857Y-6460523D02*
X27392857Y-6579571D01*
X27392857Y-6579571D02*
X27369047Y-6627190D01*
X27369047Y-6627190D02*
X27345238Y-6651000D01*
X27345238Y-6651000D02*
X27297619Y-6674809D01*
X27297619Y-6674809D02*
X27154762Y-6674809D01*
X27154762Y-6674809D02*
X27107143Y-6651000D01*
X27107143Y-6651000D02*
X27083333Y-6627190D01*
X24916666Y-6177190D02*
X24892857Y-6201000D01*
X24892857Y-6201000D02*
X24821428Y-6224809D01*
X24821428Y-6224809D02*
X24773809Y-6224809D01*
X24773809Y-6224809D02*
X24702381Y-6201000D01*
X24702381Y-6201000D02*
X24654762Y-6153380D01*
X24654762Y-6153380D02*
X24630952Y-6105761D01*
X24630952Y-6105761D02*
X24607143Y-6010523D01*
X24607143Y-6010523D02*
X24607143Y-5939095D01*
X24607143Y-5939095D02*
X24630952Y-5843857D01*
X24630952Y-5843857D02*
X24654762Y-5796238D01*
X24654762Y-5796238D02*
X24702381Y-5748619D01*
X24702381Y-5748619D02*
X24773809Y-5724809D01*
X24773809Y-5724809D02*
X24821428Y-5724809D01*
X24821428Y-5724809D02*
X24892857Y-5748619D01*
X24892857Y-5748619D02*
X24916666Y-5772428D01*
X25345238Y-5891476D02*
X25345238Y-6224809D01*
X25226190Y-5701000D02*
X25107143Y-6058142D01*
X25107143Y-6058142D02*
X25416666Y-6058142D01*
X70833333Y-10724809D02*
X70833333Y-11081952D01*
X70833333Y-11081952D02*
X70809524Y-11153380D01*
X70809524Y-11153380D02*
X70761905Y-11201000D01*
X70761905Y-11201000D02*
X70690476Y-11224809D01*
X70690476Y-11224809D02*
X70642857Y-11224809D01*
X71023809Y-10724809D02*
X71333333Y-10724809D01*
X71333333Y-10724809D02*
X71166666Y-10915285D01*
X71166666Y-10915285D02*
X71238095Y-10915285D01*
X71238095Y-10915285D02*
X71285714Y-10939095D01*
X71285714Y-10939095D02*
X71309523Y-10962904D01*
X71309523Y-10962904D02*
X71333333Y-11010523D01*
X71333333Y-11010523D02*
X71333333Y-11129571D01*
X71333333Y-11129571D02*
X71309523Y-11177190D01*
X71309523Y-11177190D02*
X71285714Y-11201000D01*
X71285714Y-11201000D02*
X71238095Y-11224809D01*
X71238095Y-11224809D02*
X71095238Y-11224809D01*
X71095238Y-11224809D02*
X71047619Y-11201000D01*
X71047619Y-11201000D02*
X71023809Y-11177190D01*
D11*
X46916667Y-23767200D02*
X47059524Y-23814819D01*
X47059524Y-23814819D02*
X47297619Y-23814819D01*
X47297619Y-23814819D02*
X47392857Y-23767200D01*
X47392857Y-23767200D02*
X47440476Y-23719580D01*
X47440476Y-23719580D02*
X47488095Y-23624342D01*
X47488095Y-23624342D02*
X47488095Y-23529104D01*
X47488095Y-23529104D02*
X47440476Y-23433866D01*
X47440476Y-23433866D02*
X47392857Y-23386247D01*
X47392857Y-23386247D02*
X47297619Y-23338628D01*
X47297619Y-23338628D02*
X47107143Y-23291009D01*
X47107143Y-23291009D02*
X47011905Y-23243390D01*
X47011905Y-23243390D02*
X46964286Y-23195771D01*
X46964286Y-23195771D02*
X46916667Y-23100533D01*
X46916667Y-23100533D02*
X46916667Y-23005295D01*
X46916667Y-23005295D02*
X46964286Y-22910057D01*
X46964286Y-22910057D02*
X47011905Y-22862438D01*
X47011905Y-22862438D02*
X47107143Y-22814819D01*
X47107143Y-22814819D02*
X47345238Y-22814819D01*
X47345238Y-22814819D02*
X47488095Y-22862438D01*
X47821429Y-22814819D02*
X48059524Y-23814819D01*
X48059524Y-23814819D02*
X48250000Y-23100533D01*
X48250000Y-23100533D02*
X48440476Y-23814819D01*
X48440476Y-23814819D02*
X48678572Y-22814819D01*
X49583333Y-23814819D02*
X49011905Y-23814819D01*
X49297619Y-23814819D02*
X49297619Y-22814819D01*
X49297619Y-22814819D02*
X49202381Y-22957676D01*
X49202381Y-22957676D02*
X49107143Y-23052914D01*
X49107143Y-23052914D02*
X49011905Y-23100533D01*
D10*
X22166666Y-35799809D02*
X22000000Y-35561714D01*
X21880952Y-35799809D02*
X21880952Y-35299809D01*
X21880952Y-35299809D02*
X22071428Y-35299809D01*
X22071428Y-35299809D02*
X22119047Y-35323619D01*
X22119047Y-35323619D02*
X22142857Y-35347428D01*
X22142857Y-35347428D02*
X22166666Y-35395047D01*
X22166666Y-35395047D02*
X22166666Y-35466476D01*
X22166666Y-35466476D02*
X22142857Y-35514095D01*
X22142857Y-35514095D02*
X22119047Y-35537904D01*
X22119047Y-35537904D02*
X22071428Y-35561714D01*
X22071428Y-35561714D02*
X21880952Y-35561714D01*
X22333333Y-35299809D02*
X22642857Y-35299809D01*
X22642857Y-35299809D02*
X22476190Y-35490285D01*
X22476190Y-35490285D02*
X22547619Y-35490285D01*
X22547619Y-35490285D02*
X22595238Y-35514095D01*
X22595238Y-35514095D02*
X22619047Y-35537904D01*
X22619047Y-35537904D02*
X22642857Y-35585523D01*
X22642857Y-35585523D02*
X22642857Y-35704571D01*
X22642857Y-35704571D02*
X22619047Y-35752190D01*
X22619047Y-35752190D02*
X22595238Y-35776000D01*
X22595238Y-35776000D02*
X22547619Y-35799809D01*
X22547619Y-35799809D02*
X22404762Y-35799809D01*
X22404762Y-35799809D02*
X22357143Y-35776000D01*
X22357143Y-35776000D02*
X22333333Y-35752190D01*
X69078571Y-37649809D02*
X68911905Y-37411714D01*
X68792857Y-37649809D02*
X68792857Y-37149809D01*
X68792857Y-37149809D02*
X68983333Y-37149809D01*
X68983333Y-37149809D02*
X69030952Y-37173619D01*
X69030952Y-37173619D02*
X69054762Y-37197428D01*
X69054762Y-37197428D02*
X69078571Y-37245047D01*
X69078571Y-37245047D02*
X69078571Y-37316476D01*
X69078571Y-37316476D02*
X69054762Y-37364095D01*
X69054762Y-37364095D02*
X69030952Y-37387904D01*
X69030952Y-37387904D02*
X68983333Y-37411714D01*
X68983333Y-37411714D02*
X68792857Y-37411714D01*
X69554762Y-37649809D02*
X69269048Y-37649809D01*
X69411905Y-37649809D02*
X69411905Y-37149809D01*
X69411905Y-37149809D02*
X69364286Y-37221238D01*
X69364286Y-37221238D02*
X69316667Y-37268857D01*
X69316667Y-37268857D02*
X69269048Y-37292666D01*
X70030952Y-37649809D02*
X69745238Y-37649809D01*
X69888095Y-37649809D02*
X69888095Y-37149809D01*
X69888095Y-37149809D02*
X69840476Y-37221238D01*
X69840476Y-37221238D02*
X69792857Y-37268857D01*
X69792857Y-37268857D02*
X69745238Y-37292666D01*
X58768452Y-31674809D02*
X58768452Y-32079571D01*
X58768452Y-32079571D02*
X58792262Y-32127190D01*
X58792262Y-32127190D02*
X58816071Y-32151000D01*
X58816071Y-32151000D02*
X58863690Y-32174809D01*
X58863690Y-32174809D02*
X58958928Y-32174809D01*
X58958928Y-32174809D02*
X59006547Y-32151000D01*
X59006547Y-32151000D02*
X59030357Y-32127190D01*
X59030357Y-32127190D02*
X59054166Y-32079571D01*
X59054166Y-32079571D02*
X59054166Y-31674809D01*
X59554167Y-32174809D02*
X59268453Y-32174809D01*
X59411310Y-32174809D02*
X59411310Y-31674809D01*
X59411310Y-31674809D02*
X59363691Y-31746238D01*
X59363691Y-31746238D02*
X59316072Y-31793857D01*
X59316072Y-31793857D02*
X59268453Y-31817666D01*
X59863690Y-31674809D02*
X59911309Y-31674809D01*
X59911309Y-31674809D02*
X59958928Y-31698619D01*
X59958928Y-31698619D02*
X59982738Y-31722428D01*
X59982738Y-31722428D02*
X60006547Y-31770047D01*
X60006547Y-31770047D02*
X60030357Y-31865285D01*
X60030357Y-31865285D02*
X60030357Y-31984333D01*
X60030357Y-31984333D02*
X60006547Y-32079571D01*
X60006547Y-32079571D02*
X59982738Y-32127190D01*
X59982738Y-32127190D02*
X59958928Y-32151000D01*
X59958928Y-32151000D02*
X59911309Y-32174809D01*
X59911309Y-32174809D02*
X59863690Y-32174809D01*
X59863690Y-32174809D02*
X59816071Y-32151000D01*
X59816071Y-32151000D02*
X59792262Y-32127190D01*
X59792262Y-32127190D02*
X59768452Y-32079571D01*
X59768452Y-32079571D02*
X59744643Y-31984333D01*
X59744643Y-31984333D02*
X59744643Y-31865285D01*
X59744643Y-31865285D02*
X59768452Y-31770047D01*
X59768452Y-31770047D02*
X59792262Y-31722428D01*
X59792262Y-31722428D02*
X59816071Y-31698619D01*
X59816071Y-31698619D02*
X59863690Y-31674809D01*
X24416666Y-35799809D02*
X24250000Y-35561714D01*
X24130952Y-35799809D02*
X24130952Y-35299809D01*
X24130952Y-35299809D02*
X24321428Y-35299809D01*
X24321428Y-35299809D02*
X24369047Y-35323619D01*
X24369047Y-35323619D02*
X24392857Y-35347428D01*
X24392857Y-35347428D02*
X24416666Y-35395047D01*
X24416666Y-35395047D02*
X24416666Y-35466476D01*
X24416666Y-35466476D02*
X24392857Y-35514095D01*
X24392857Y-35514095D02*
X24369047Y-35537904D01*
X24369047Y-35537904D02*
X24321428Y-35561714D01*
X24321428Y-35561714D02*
X24130952Y-35561714D01*
X24654762Y-35799809D02*
X24750000Y-35799809D01*
X24750000Y-35799809D02*
X24797619Y-35776000D01*
X24797619Y-35776000D02*
X24821428Y-35752190D01*
X24821428Y-35752190D02*
X24869047Y-35680761D01*
X24869047Y-35680761D02*
X24892857Y-35585523D01*
X24892857Y-35585523D02*
X24892857Y-35395047D01*
X24892857Y-35395047D02*
X24869047Y-35347428D01*
X24869047Y-35347428D02*
X24845238Y-35323619D01*
X24845238Y-35323619D02*
X24797619Y-35299809D01*
X24797619Y-35299809D02*
X24702381Y-35299809D01*
X24702381Y-35299809D02*
X24654762Y-35323619D01*
X24654762Y-35323619D02*
X24630952Y-35347428D01*
X24630952Y-35347428D02*
X24607143Y-35395047D01*
X24607143Y-35395047D02*
X24607143Y-35514095D01*
X24607143Y-35514095D02*
X24630952Y-35561714D01*
X24630952Y-35561714D02*
X24654762Y-35585523D01*
X24654762Y-35585523D02*
X24702381Y-35609333D01*
X24702381Y-35609333D02*
X24797619Y-35609333D01*
X24797619Y-35609333D02*
X24845238Y-35585523D01*
X24845238Y-35585523D02*
X24869047Y-35561714D01*
X24869047Y-35561714D02*
X24892857Y-35514095D01*
X53416666Y-19677190D02*
X53392857Y-19701000D01*
X53392857Y-19701000D02*
X53321428Y-19724809D01*
X53321428Y-19724809D02*
X53273809Y-19724809D01*
X53273809Y-19724809D02*
X53202381Y-19701000D01*
X53202381Y-19701000D02*
X53154762Y-19653380D01*
X53154762Y-19653380D02*
X53130952Y-19605761D01*
X53130952Y-19605761D02*
X53107143Y-19510523D01*
X53107143Y-19510523D02*
X53107143Y-19439095D01*
X53107143Y-19439095D02*
X53130952Y-19343857D01*
X53130952Y-19343857D02*
X53154762Y-19296238D01*
X53154762Y-19296238D02*
X53202381Y-19248619D01*
X53202381Y-19248619D02*
X53273809Y-19224809D01*
X53273809Y-19224809D02*
X53321428Y-19224809D01*
X53321428Y-19224809D02*
X53392857Y-19248619D01*
X53392857Y-19248619D02*
X53416666Y-19272428D01*
X53845238Y-19224809D02*
X53750000Y-19224809D01*
X53750000Y-19224809D02*
X53702381Y-19248619D01*
X53702381Y-19248619D02*
X53678571Y-19272428D01*
X53678571Y-19272428D02*
X53630952Y-19343857D01*
X53630952Y-19343857D02*
X53607143Y-19439095D01*
X53607143Y-19439095D02*
X53607143Y-19629571D01*
X53607143Y-19629571D02*
X53630952Y-19677190D01*
X53630952Y-19677190D02*
X53654762Y-19701000D01*
X53654762Y-19701000D02*
X53702381Y-19724809D01*
X53702381Y-19724809D02*
X53797619Y-19724809D01*
X53797619Y-19724809D02*
X53845238Y-19701000D01*
X53845238Y-19701000D02*
X53869047Y-19677190D01*
X53869047Y-19677190D02*
X53892857Y-19629571D01*
X53892857Y-19629571D02*
X53892857Y-19510523D01*
X53892857Y-19510523D02*
X53869047Y-19462904D01*
X53869047Y-19462904D02*
X53845238Y-19439095D01*
X53845238Y-19439095D02*
X53797619Y-19415285D01*
X53797619Y-19415285D02*
X53702381Y-19415285D01*
X53702381Y-19415285D02*
X53654762Y-19439095D01*
X53654762Y-19439095D02*
X53630952Y-19462904D01*
X53630952Y-19462904D02*
X53607143Y-19510523D01*
X51619048Y-39724809D02*
X51904762Y-39724809D01*
X51761905Y-40224809D02*
X51761905Y-39724809D01*
X52071428Y-40224809D02*
X52071428Y-39724809D01*
X52071428Y-39724809D02*
X52261904Y-39724809D01*
X52261904Y-39724809D02*
X52309523Y-39748619D01*
X52309523Y-39748619D02*
X52333333Y-39772428D01*
X52333333Y-39772428D02*
X52357142Y-39820047D01*
X52357142Y-39820047D02*
X52357142Y-39891476D01*
X52357142Y-39891476D02*
X52333333Y-39939095D01*
X52333333Y-39939095D02*
X52309523Y-39962904D01*
X52309523Y-39962904D02*
X52261904Y-39986714D01*
X52261904Y-39986714D02*
X52071428Y-39986714D01*
X52785714Y-39891476D02*
X52785714Y-40224809D01*
X52666666Y-39701000D02*
X52547619Y-40058142D01*
X52547619Y-40058142D02*
X52857142Y-40058142D01*
X7119048Y-37724809D02*
X7404762Y-37724809D01*
X7261905Y-38224809D02*
X7261905Y-37724809D01*
X7571428Y-38224809D02*
X7571428Y-37724809D01*
X7571428Y-37724809D02*
X7761904Y-37724809D01*
X7761904Y-37724809D02*
X7809523Y-37748619D01*
X7809523Y-37748619D02*
X7833333Y-37772428D01*
X7833333Y-37772428D02*
X7857142Y-37820047D01*
X7857142Y-37820047D02*
X7857142Y-37891476D01*
X7857142Y-37891476D02*
X7833333Y-37939095D01*
X7833333Y-37939095D02*
X7809523Y-37962904D01*
X7809523Y-37962904D02*
X7761904Y-37986714D01*
X7761904Y-37986714D02*
X7571428Y-37986714D01*
X8023809Y-37724809D02*
X8333333Y-37724809D01*
X8333333Y-37724809D02*
X8166666Y-37915285D01*
X8166666Y-37915285D02*
X8238095Y-37915285D01*
X8238095Y-37915285D02*
X8285714Y-37939095D01*
X8285714Y-37939095D02*
X8309523Y-37962904D01*
X8309523Y-37962904D02*
X8333333Y-38010523D01*
X8333333Y-38010523D02*
X8333333Y-38129571D01*
X8333333Y-38129571D02*
X8309523Y-38177190D01*
X8309523Y-38177190D02*
X8285714Y-38201000D01*
X8285714Y-38201000D02*
X8238095Y-38224809D01*
X8238095Y-38224809D02*
X8095238Y-38224809D01*
X8095238Y-38224809D02*
X8047619Y-38201000D01*
X8047619Y-38201000D02*
X8023809Y-38177190D01*
X58066071Y-36724809D02*
X57827976Y-36724809D01*
X57827976Y-36724809D02*
X57827976Y-36224809D01*
X58494643Y-36724809D02*
X58208929Y-36724809D01*
X58351786Y-36724809D02*
X58351786Y-36224809D01*
X58351786Y-36224809D02*
X58304167Y-36296238D01*
X58304167Y-36296238D02*
X58256548Y-36343857D01*
X58256548Y-36343857D02*
X58208929Y-36367666D01*
X58804166Y-36224809D02*
X58851785Y-36224809D01*
X58851785Y-36224809D02*
X58899404Y-36248619D01*
X58899404Y-36248619D02*
X58923214Y-36272428D01*
X58923214Y-36272428D02*
X58947023Y-36320047D01*
X58947023Y-36320047D02*
X58970833Y-36415285D01*
X58970833Y-36415285D02*
X58970833Y-36534333D01*
X58970833Y-36534333D02*
X58947023Y-36629571D01*
X58947023Y-36629571D02*
X58923214Y-36677190D01*
X58923214Y-36677190D02*
X58899404Y-36701000D01*
X58899404Y-36701000D02*
X58851785Y-36724809D01*
X58851785Y-36724809D02*
X58804166Y-36724809D01*
X58804166Y-36724809D02*
X58756547Y-36701000D01*
X58756547Y-36701000D02*
X58732738Y-36677190D01*
X58732738Y-36677190D02*
X58708928Y-36629571D01*
X58708928Y-36629571D02*
X58685119Y-36534333D01*
X58685119Y-36534333D02*
X58685119Y-36415285D01*
X58685119Y-36415285D02*
X58708928Y-36320047D01*
X58708928Y-36320047D02*
X58732738Y-36272428D01*
X58732738Y-36272428D02*
X58756547Y-36248619D01*
X58756547Y-36248619D02*
X58804166Y-36224809D01*
X8369048Y-2240809D02*
X8654762Y-2240809D01*
X8511905Y-2740809D02*
X8511905Y-2240809D01*
X8821428Y-2740809D02*
X8821428Y-2240809D01*
X8821428Y-2240809D02*
X9011904Y-2240809D01*
X9011904Y-2240809D02*
X9059523Y-2264619D01*
X9059523Y-2264619D02*
X9083333Y-2288428D01*
X9083333Y-2288428D02*
X9107142Y-2336047D01*
X9107142Y-2336047D02*
X9107142Y-2407476D01*
X9107142Y-2407476D02*
X9083333Y-2455095D01*
X9083333Y-2455095D02*
X9059523Y-2478904D01*
X9059523Y-2478904D02*
X9011904Y-2502714D01*
X9011904Y-2502714D02*
X8821428Y-2502714D01*
X9583333Y-2740809D02*
X9297619Y-2740809D01*
X9440476Y-2740809D02*
X9440476Y-2240809D01*
X9440476Y-2240809D02*
X9392857Y-2312238D01*
X9392857Y-2312238D02*
X9345238Y-2359857D01*
X9345238Y-2359857D02*
X9297619Y-2383666D01*
X64005357Y-36074809D02*
X64005357Y-35574809D01*
X64005357Y-35574809D02*
X64124405Y-35574809D01*
X64124405Y-35574809D02*
X64195833Y-35598619D01*
X64195833Y-35598619D02*
X64243452Y-35646238D01*
X64243452Y-35646238D02*
X64267262Y-35693857D01*
X64267262Y-35693857D02*
X64291071Y-35789095D01*
X64291071Y-35789095D02*
X64291071Y-35860523D01*
X64291071Y-35860523D02*
X64267262Y-35955761D01*
X64267262Y-35955761D02*
X64243452Y-36003380D01*
X64243452Y-36003380D02*
X64195833Y-36051000D01*
X64195833Y-36051000D02*
X64124405Y-36074809D01*
X64124405Y-36074809D02*
X64005357Y-36074809D01*
X64767262Y-36074809D02*
X64481548Y-36074809D01*
X64624405Y-36074809D02*
X64624405Y-35574809D01*
X64624405Y-35574809D02*
X64576786Y-35646238D01*
X64576786Y-35646238D02*
X64529167Y-35693857D01*
X64529167Y-35693857D02*
X64481548Y-35717666D01*
X65076785Y-35574809D02*
X65124404Y-35574809D01*
X65124404Y-35574809D02*
X65172023Y-35598619D01*
X65172023Y-35598619D02*
X65195833Y-35622428D01*
X65195833Y-35622428D02*
X65219642Y-35670047D01*
X65219642Y-35670047D02*
X65243452Y-35765285D01*
X65243452Y-35765285D02*
X65243452Y-35884333D01*
X65243452Y-35884333D02*
X65219642Y-35979571D01*
X65219642Y-35979571D02*
X65195833Y-36027190D01*
X65195833Y-36027190D02*
X65172023Y-36051000D01*
X65172023Y-36051000D02*
X65124404Y-36074809D01*
X65124404Y-36074809D02*
X65076785Y-36074809D01*
X65076785Y-36074809D02*
X65029166Y-36051000D01*
X65029166Y-36051000D02*
X65005357Y-36027190D01*
X65005357Y-36027190D02*
X64981547Y-35979571D01*
X64981547Y-35979571D02*
X64957738Y-35884333D01*
X64957738Y-35884333D02*
X64957738Y-35765285D01*
X64957738Y-35765285D02*
X64981547Y-35670047D01*
X64981547Y-35670047D02*
X65005357Y-35622428D01*
X65005357Y-35622428D02*
X65029166Y-35598619D01*
X65029166Y-35598619D02*
X65076785Y-35574809D01*
X19916666Y-35799809D02*
X19750000Y-35561714D01*
X19630952Y-35799809D02*
X19630952Y-35299809D01*
X19630952Y-35299809D02*
X19821428Y-35299809D01*
X19821428Y-35299809D02*
X19869047Y-35323619D01*
X19869047Y-35323619D02*
X19892857Y-35347428D01*
X19892857Y-35347428D02*
X19916666Y-35395047D01*
X19916666Y-35395047D02*
X19916666Y-35466476D01*
X19916666Y-35466476D02*
X19892857Y-35514095D01*
X19892857Y-35514095D02*
X19869047Y-35537904D01*
X19869047Y-35537904D02*
X19821428Y-35561714D01*
X19821428Y-35561714D02*
X19630952Y-35561714D01*
X20345238Y-35466476D02*
X20345238Y-35799809D01*
X20226190Y-35276000D02*
X20107143Y-35633142D01*
X20107143Y-35633142D02*
X20416666Y-35633142D01*
D11*
X36666666Y-5804819D02*
X36666666Y-6519104D01*
X36666666Y-6519104D02*
X36619047Y-6661961D01*
X36619047Y-6661961D02*
X36523809Y-6757200D01*
X36523809Y-6757200D02*
X36380952Y-6804819D01*
X36380952Y-6804819D02*
X36285714Y-6804819D01*
X37666666Y-6804819D02*
X37095238Y-6804819D01*
X37380952Y-6804819D02*
X37380952Y-5804819D01*
X37380952Y-5804819D02*
X37285714Y-5947676D01*
X37285714Y-5947676D02*
X37190476Y-6042914D01*
X37190476Y-6042914D02*
X37095238Y-6090533D01*
D10*
X71078571Y-37649809D02*
X70911905Y-37411714D01*
X70792857Y-37649809D02*
X70792857Y-37149809D01*
X70792857Y-37149809D02*
X70983333Y-37149809D01*
X70983333Y-37149809D02*
X71030952Y-37173619D01*
X71030952Y-37173619D02*
X71054762Y-37197428D01*
X71054762Y-37197428D02*
X71078571Y-37245047D01*
X71078571Y-37245047D02*
X71078571Y-37316476D01*
X71078571Y-37316476D02*
X71054762Y-37364095D01*
X71054762Y-37364095D02*
X71030952Y-37387904D01*
X71030952Y-37387904D02*
X70983333Y-37411714D01*
X70983333Y-37411714D02*
X70792857Y-37411714D01*
X71554762Y-37649809D02*
X71269048Y-37649809D01*
X71411905Y-37649809D02*
X71411905Y-37149809D01*
X71411905Y-37149809D02*
X71364286Y-37221238D01*
X71364286Y-37221238D02*
X71316667Y-37268857D01*
X71316667Y-37268857D02*
X71269048Y-37292666D01*
X71745238Y-37197428D02*
X71769047Y-37173619D01*
X71769047Y-37173619D02*
X71816666Y-37149809D01*
X71816666Y-37149809D02*
X71935714Y-37149809D01*
X71935714Y-37149809D02*
X71983333Y-37173619D01*
X71983333Y-37173619D02*
X72007142Y-37197428D01*
X72007142Y-37197428D02*
X72030952Y-37245047D01*
X72030952Y-37245047D02*
X72030952Y-37292666D01*
X72030952Y-37292666D02*
X72007142Y-37364095D01*
X72007142Y-37364095D02*
X71721428Y-37649809D01*
X71721428Y-37649809D02*
X72030952Y-37649809D01*
X26916666Y-35799809D02*
X26750000Y-35561714D01*
X26630952Y-35799809D02*
X26630952Y-35299809D01*
X26630952Y-35299809D02*
X26821428Y-35299809D01*
X26821428Y-35299809D02*
X26869047Y-35323619D01*
X26869047Y-35323619D02*
X26892857Y-35347428D01*
X26892857Y-35347428D02*
X26916666Y-35395047D01*
X26916666Y-35395047D02*
X26916666Y-35466476D01*
X26916666Y-35466476D02*
X26892857Y-35514095D01*
X26892857Y-35514095D02*
X26869047Y-35537904D01*
X26869047Y-35537904D02*
X26821428Y-35561714D01*
X26821428Y-35561714D02*
X26630952Y-35561714D01*
X27202381Y-35514095D02*
X27154762Y-35490285D01*
X27154762Y-35490285D02*
X27130952Y-35466476D01*
X27130952Y-35466476D02*
X27107143Y-35418857D01*
X27107143Y-35418857D02*
X27107143Y-35395047D01*
X27107143Y-35395047D02*
X27130952Y-35347428D01*
X27130952Y-35347428D02*
X27154762Y-35323619D01*
X27154762Y-35323619D02*
X27202381Y-35299809D01*
X27202381Y-35299809D02*
X27297619Y-35299809D01*
X27297619Y-35299809D02*
X27345238Y-35323619D01*
X27345238Y-35323619D02*
X27369047Y-35347428D01*
X27369047Y-35347428D02*
X27392857Y-35395047D01*
X27392857Y-35395047D02*
X27392857Y-35418857D01*
X27392857Y-35418857D02*
X27369047Y-35466476D01*
X27369047Y-35466476D02*
X27345238Y-35490285D01*
X27345238Y-35490285D02*
X27297619Y-35514095D01*
X27297619Y-35514095D02*
X27202381Y-35514095D01*
X27202381Y-35514095D02*
X27154762Y-35537904D01*
X27154762Y-35537904D02*
X27130952Y-35561714D01*
X27130952Y-35561714D02*
X27107143Y-35609333D01*
X27107143Y-35609333D02*
X27107143Y-35704571D01*
X27107143Y-35704571D02*
X27130952Y-35752190D01*
X27130952Y-35752190D02*
X27154762Y-35776000D01*
X27154762Y-35776000D02*
X27202381Y-35799809D01*
X27202381Y-35799809D02*
X27297619Y-35799809D01*
X27297619Y-35799809D02*
X27345238Y-35776000D01*
X27345238Y-35776000D02*
X27369047Y-35752190D01*
X27369047Y-35752190D02*
X27392857Y-35704571D01*
X27392857Y-35704571D02*
X27392857Y-35609333D01*
X27392857Y-35609333D02*
X27369047Y-35561714D01*
X27369047Y-35561714D02*
X27345238Y-35537904D01*
X27345238Y-35537904D02*
X27297619Y-35514095D01*
X64041071Y-31727190D02*
X64017262Y-31751000D01*
X64017262Y-31751000D02*
X63945833Y-31774809D01*
X63945833Y-31774809D02*
X63898214Y-31774809D01*
X63898214Y-31774809D02*
X63826786Y-31751000D01*
X63826786Y-31751000D02*
X63779167Y-31703380D01*
X63779167Y-31703380D02*
X63755357Y-31655761D01*
X63755357Y-31655761D02*
X63731548Y-31560523D01*
X63731548Y-31560523D02*
X63731548Y-31489095D01*
X63731548Y-31489095D02*
X63755357Y-31393857D01*
X63755357Y-31393857D02*
X63779167Y-31346238D01*
X63779167Y-31346238D02*
X63826786Y-31298619D01*
X63826786Y-31298619D02*
X63898214Y-31274809D01*
X63898214Y-31274809D02*
X63945833Y-31274809D01*
X63945833Y-31274809D02*
X64017262Y-31298619D01*
X64017262Y-31298619D02*
X64041071Y-31322428D01*
X64517262Y-31774809D02*
X64231548Y-31774809D01*
X64374405Y-31774809D02*
X64374405Y-31274809D01*
X64374405Y-31274809D02*
X64326786Y-31346238D01*
X64326786Y-31346238D02*
X64279167Y-31393857D01*
X64279167Y-31393857D02*
X64231548Y-31417666D01*
X64707738Y-31322428D02*
X64731547Y-31298619D01*
X64731547Y-31298619D02*
X64779166Y-31274809D01*
X64779166Y-31274809D02*
X64898214Y-31274809D01*
X64898214Y-31274809D02*
X64945833Y-31298619D01*
X64945833Y-31298619D02*
X64969642Y-31322428D01*
X64969642Y-31322428D02*
X64993452Y-31370047D01*
X64993452Y-31370047D02*
X64993452Y-31417666D01*
X64993452Y-31417666D02*
X64969642Y-31489095D01*
X64969642Y-31489095D02*
X64683928Y-31774809D01*
X64683928Y-31774809D02*
X64993452Y-31774809D01*
D12*
%TO.C,R10*%
X55365000Y-29787258D02*
X55365000Y-29312742D01*
X56410000Y-29787258D02*
X56410000Y-29312742D01*
%TO.C,C10*%
X56247500Y-32962164D02*
X56247500Y-33177836D01*
X55527500Y-32962164D02*
X55527500Y-33177836D01*
%TO.C,C5*%
X51410000Y-15813748D02*
X51410000Y-17236252D01*
X49590000Y-15813748D02*
X49590000Y-17236252D01*
%TO.C,C11*%
X67357836Y-38610000D02*
X67142164Y-38610000D01*
X67357836Y-37890000D02*
X67142164Y-37890000D01*
%TO.C,C3*%
X26265000Y-4261252D02*
X26265000Y-3738748D01*
X27735000Y-4261252D02*
X27735000Y-3738748D01*
%TO.C,C4*%
X24490000Y-4140580D02*
X24490000Y-3859420D01*
X25510000Y-4140580D02*
X25510000Y-3859420D01*
%TO.C,J3*%
X72330000Y-30955000D02*
X71000000Y-30955000D01*
X72330000Y-29625000D02*
X72330000Y-30955000D01*
X72330000Y-28355000D02*
X72330000Y-13055000D01*
X72330000Y-28355000D02*
X69670000Y-28355000D01*
X72330000Y-13055000D02*
X69670000Y-13055000D01*
X69670000Y-28355000D02*
X69670000Y-13055000D01*
%TO.C,SW1*%
X44550000Y-25010000D02*
X45941000Y-25010000D01*
X45941000Y-24360000D02*
X45941000Y-25010000D01*
X45941000Y-24360000D02*
X50560000Y-24360000D01*
X45941000Y-35200000D02*
X45941000Y-35910000D01*
X45941000Y-35910000D02*
X50560000Y-35910000D01*
X50560000Y-24360000D02*
X50560000Y-25070000D01*
X50560000Y-35200000D02*
X50560000Y-35910000D01*
%TO.C,R3*%
X22772500Y-33087742D02*
X22772500Y-33562258D01*
X21727500Y-33087742D02*
X21727500Y-33562258D01*
%TO.C,R11*%
X67877500Y-35162258D02*
X67877500Y-34687742D01*
X68922500Y-35162258D02*
X68922500Y-34687742D01*
%TO.C,U10*%
X59387500Y-31110000D02*
X61187500Y-31110000D01*
X59387500Y-31110000D02*
X58587500Y-31110000D01*
X59387500Y-27990000D02*
X60187500Y-27990000D01*
X59387500Y-27990000D02*
X58587500Y-27990000D01*
%TO.C,R9*%
X23977500Y-33562258D02*
X23977500Y-33087742D01*
X25022500Y-33562258D02*
X25022500Y-33087742D01*
%TO.C,C6*%
X54410000Y-15813748D02*
X54410000Y-17236252D01*
X52590000Y-15813748D02*
X52590000Y-17236252D01*
%TO.C,L10*%
X58926248Y-32640000D02*
X60348752Y-32640000D01*
X58926248Y-35360000D02*
X60348752Y-35360000D01*
%TO.C,D10*%
X66112500Y-34850000D02*
X66112500Y-33150000D01*
X66112500Y-34850000D02*
X63562500Y-34850000D01*
X66112500Y-33150000D02*
X63562500Y-33150000D01*
%TO.C,R4*%
X19477500Y-33562258D02*
X19477500Y-33087742D01*
X20522500Y-33562258D02*
X20522500Y-33087742D01*
%TO.C,J1*%
X29350000Y-8750000D02*
X29350000Y-10090000D01*
X29350000Y-12810000D02*
X29350000Y-14550000D01*
X29350000Y-14550000D02*
X44650000Y-14550000D01*
X30840000Y-8750000D02*
X29350000Y-8750000D01*
X43160000Y-8750000D02*
X43160000Y-7550000D01*
X43160000Y-8750000D02*
X44650000Y-8750000D01*
X44650000Y-8750000D02*
X44650000Y-10090000D01*
X44650000Y-14550000D02*
X44650000Y-12810000D01*
%TO.C,R12*%
X71422500Y-34687742D02*
X71422500Y-35162258D01*
X70377500Y-34687742D02*
X70377500Y-35162258D01*
%TO.C,R8*%
X26227500Y-33562258D02*
X26227500Y-33087742D01*
X27272500Y-33562258D02*
X27272500Y-33087742D01*
%TO.C,C12*%
X63651248Y-28190000D02*
X65073752Y-28190000D01*
X63651248Y-30910000D02*
X65073752Y-30910000D01*
%TD*%
%LPC*%
D13*
%TO.C,R10*%
X55887500Y-30375000D03*
X55887500Y-28725000D03*
%TD*%
D14*
%TO.C,C10*%
X55887500Y-32590000D03*
X55887500Y-33550000D03*
%TD*%
D15*
%TO.C,TP2*%
X57500000Y-4016000D03*
D16*
X57500000Y-3000000D03*
%TD*%
D17*
%TO.C,C5*%
X50500000Y-15050000D03*
X50500000Y-18000000D03*
%TD*%
D18*
%TO.C,C11*%
X67730000Y-38250000D03*
X66770000Y-38250000D03*
%TD*%
D19*
%TO.C,C3*%
X27000000Y-4950000D03*
X27000000Y-3050000D03*
%TD*%
D20*
%TO.C,C4*%
X25000000Y-4775000D03*
X25000000Y-3225000D03*
%TD*%
D21*
%TO.C,J3*%
X71000000Y-29625000D03*
D22*
X71000000Y-27085000D03*
X71000000Y-24545000D03*
X71000000Y-22005000D03*
X71000000Y-19465000D03*
X71000000Y-16925000D03*
X71000000Y-14385000D03*
%TD*%
D23*
%TO.C,SW1*%
X45175000Y-25690000D03*
X45175000Y-26960000D03*
X45175000Y-28230000D03*
X45175000Y-29500000D03*
X45175000Y-30770000D03*
X45175000Y-32040000D03*
X45175000Y-33310000D03*
X45175000Y-34580000D03*
X51325000Y-34580000D03*
X51325000Y-33310000D03*
X51325000Y-32040000D03*
X51325000Y-30770000D03*
X51325000Y-29500000D03*
X51325000Y-28230000D03*
X51325000Y-26960000D03*
X51325000Y-25690000D03*
%TD*%
D24*
%TO.C,REF\u002A\u002A*%
X8000000Y-42000000D03*
%TD*%
D25*
%TO.C,R3*%
X22250000Y-32500000D03*
X22250000Y-34150000D03*
%TD*%
D13*
%TO.C,R11*%
X68400000Y-35750000D03*
X68400000Y-34100000D03*
%TD*%
D26*
%TO.C,U10*%
X60525000Y-30500000D03*
X60525000Y-29550000D03*
X60525000Y-28600000D03*
X58250000Y-28600000D03*
X58250000Y-30500000D03*
%TD*%
D13*
%TO.C,R9*%
X24500000Y-34150000D03*
X24500000Y-32500000D03*
%TD*%
D17*
%TO.C,C6*%
X53500000Y-15050000D03*
X53500000Y-18000000D03*
%TD*%
D16*
%TO.C,TP4*%
X59250000Y-42000000D03*
D27*
X59250000Y-40984000D03*
%TD*%
%TO.C,TP3*%
X14750000Y-40984000D03*
D16*
X14750000Y-42000000D03*
%TD*%
D28*
%TO.C,L10*%
X58162500Y-34000000D03*
X61112500Y-34000000D03*
%TD*%
D24*
%TO.C,REF\u002A\u002A*%
X65000000Y-3000000D03*
%TD*%
D15*
%TO.C,TP1*%
X16500000Y-4016000D03*
D16*
X16500000Y-3000000D03*
%TD*%
D29*
%TO.C,D10*%
X65662500Y-34000000D03*
X63562500Y-34000000D03*
%TD*%
D13*
%TO.C,R4*%
X20000000Y-34150000D03*
X20000000Y-32500000D03*
%TD*%
D30*
%TO.C,J1*%
X42750000Y-8200000D03*
X42250000Y-8200000D03*
X41750000Y-8200000D03*
X41250000Y-8200000D03*
X40750000Y-8200000D03*
X40250000Y-8200000D03*
X39750000Y-8200000D03*
X39250000Y-8200000D03*
X38750000Y-8200000D03*
X38250000Y-8200000D03*
X37750000Y-8200000D03*
X37250000Y-8200000D03*
X36750000Y-8200000D03*
X36250000Y-8200000D03*
X35750000Y-8200000D03*
X35250000Y-8200000D03*
X34750000Y-8200000D03*
X34250000Y-8200000D03*
X33750000Y-8200000D03*
X33250000Y-8200000D03*
X32750000Y-8200000D03*
X32250000Y-8200000D03*
X31750000Y-8200000D03*
X31250000Y-8200000D03*
D31*
X29350000Y-11450000D03*
X44650000Y-11450000D03*
%TD*%
D25*
%TO.C,R12*%
X70900000Y-34100000D03*
X70900000Y-35750000D03*
%TD*%
D13*
%TO.C,R8*%
X26750000Y-34150000D03*
X26750000Y-32500000D03*
%TD*%
D28*
%TO.C,C12*%
X62887500Y-29550000D03*
X65837500Y-29550000D03*
%TD*%
%LPD*%
M02*
