M48
; DRILL file {KiCad 7.0.7} date Sat Sep 16 22:14:34 2023
; FORMAT={-:-/ absolute / inch / decimal}
; #@! TF.CreationDate,2023-09-16T22:14:34+02:00
; #@! TF.GenerationSoftware,Kicad,Pcbnew,7.0.7
; #@! TF.FileFunction,Plated,1,2,PTH
FMAT,2
INCH
; #@! TA.AperFunction,Plated,PTH,ViaDrill
T1C0.0157
; #@! TA.AperFunction,Plated,PTH,ComponentDrill
T2C0.0394
%
G90
G05
T1
X0.5906Y-1.5748
X0.6299Y-0.1969
X0.7874Y-1.2037
X1.0039Y-0.4232
X1.0236Y-0.0591
X1.0827Y-0.5709
X1.1614Y-0.4528
X1.2402Y-0.3937
X1.3386Y-1.3091
X1.437Y-0.9252
X1.4764Y-0.7382
X1.5846Y-0.4823
X1.6142Y-1.2455
X1.624Y-0.3937
X1.6339Y-0.4823
X1.6929Y-0.6299
X1.6929Y-0.7185
X1.6929Y-0.7972
X1.7224Y-0.315
X1.752Y-0.4528
X1.9094Y-1.0093
X1.9094Y-1.1077
X1.9094Y-1.1569
X2.0669Y-0.8169
X2.0768Y-1.1864
X2.0768Y-1.3341
X2.0768Y-1.3931
X2.1358Y-0.8858
X2.1358Y-0.9646
X2.1654Y-1.3484
X2.1654Y-1.4272
X2.185Y-0.5709
X2.3031Y-0.1969
X2.3031Y-0.7874
X2.3425Y-1.5748
X2.4759Y-1.0657
X2.6378Y-1.3386
T2
X2.7953Y-0.5663
X2.7953Y-0.6663
X2.7953Y-0.7663
X2.7953Y-0.8663
X2.7953Y-0.9663
X2.7953Y-1.0663
X2.7953Y-1.1663
T0
M30
